<?xml version="1.0" encoding="iso-8859-1"?>
<!-- Generator: Adobe Illustrator 19.0.0, SVG Export Plug-In . SVG Version: 6.00 Build 0)  -->
<svg version="1.1" id="Layer_1" xmlns="http://www.w3.org/2000/svg" xmlns:xlink="http://www.w3.org/1999/xlink" x="0px" y="0px"
	 viewBox="0 0 512 512" style="enable-background:new 0 0 512 512;" xml:space="preserve">
<g>
	<g>
		<path d="M295.588,44.866v190.021h-47.505V87.093H63.34v147.794H44.866c-12.029,0-23.274,4.684-31.673,13.192
			C4.685,256.475,0,267.722,0,279.753c0,11.065,4.035,21.2,10.698,29.031H0v58.062h36.948v100.289h52.784V366.845h131.959v100.289
			h52.784V366.845h21.113v100.289h52.784V366.845h110.845v100.289H512V44.866H295.588z M253.361,279.753
			c0,16.007-13.023,29.031-29.031,29.031s-29.031-13.024-29.031-29.031c0-16.007,13.023-29.031,29.031-29.031
			S253.361,263.745,253.361,279.753z M142.515,102.928h26.392v58.062h-26.392V102.928z M79.175,102.928h47.505v73.897h58.062
			v-73.897h47.505v131.959H79.175V102.928z M180.178,271.835H147.08c-1.424-7.959-4.948-15.195-9.985-21.113h53.068
			C185.127,256.64,181.602,263.876,180.178,271.835z M190.162,308.784h-53.068c5.037-5.918,8.561-13.155,9.986-21.113h33.097
			C181.602,295.629,185.125,302.865,190.162,308.784z M102.928,250.722c16.008,0,29.031,13.024,29.031,29.031
			c0,16.007-13.023,29.031-29.031,29.031s-29.031-13.024-29.031-29.031C73.897,263.745,86.92,250.722,102.928,250.722z
			 M24.345,259.32l0.089-0.088c5.403-5.487,12.66-8.511,20.432-8.511H63.34h5.42c-5.037,5.918-8.561,13.155-9.984,21.113H16.931
			C18.262,267.126,20.779,262.829,24.345,259.32z M68.76,308.784H44.866c-13.262,0-24.468-8.944-27.925-21.113h41.834
			C60.2,295.629,63.723,302.865,68.76,308.784z M295.588,351.01h-36.948v100.289h-21.113V351.01H73.897v100.289H52.784V351.01
			H15.835v-26.392h279.753V351.01z M295.588,308.784h-37.09c5.037-5.918,8.561-13.155,9.984-21.113h27.105V308.784z
			 M295.588,271.835h-27.105c-1.424-7.959-4.948-15.195-9.984-21.113h37.09V271.835z M332.536,451.299h-21.113v-84.454h21.113
			V451.299z M496.165,451.299h-21.113v-84.454h21.113V451.299z M496.165,351.01H311.423V60.701h184.742V351.01z"/>
	</g>
</g>
<g>
	<g>
		<rect x="92.371" y="271.835" width="21.113" height="15.835"/>
	</g>
</g>
<g>
	<g>
		<rect x="213.773" y="271.835" width="21.113" height="15.835"/>
	</g>
</g>
<g>
	<g>
		<path d="M332.536,81.814v100.289h142.516V81.814H332.536z M459.216,166.268H348.371V97.649h110.845V166.268z"/>
	</g>
</g>
<g>
	<g>
		<polygon points="364.206,113.485 364.206,147.794 380.041,147.794 380.041,129.32 398.516,129.32 398.516,113.485 		"/>
	</g>
</g>
<g>
	<g>
		<rect x="329.897" y="203.216" width="147.794" height="15.835"/>
	</g>
</g>
<g>
	<g>
		<rect x="329.897" y="234.887" width="21.113" height="15.835"/>
	</g>
</g>
<g>
	<g>
		<rect x="366.845" y="234.887" width="21.113" height="15.835"/>
	</g>
</g>
<g>
	<g>
		<rect x="456.577" y="234.887" width="21.113" height="15.835"/>
	</g>
</g>
<g>
	<g>
		<rect x="329.897" y="308.784" width="147.794" height="15.835"/>
	</g>
</g>
<g>
	<g>
		<rect x="108.206" y="197.938" width="95.01" height="15.835"/>
	</g>
</g>
<g>
</g>
<g>
</g>
<g>
</g>
<g>
</g>
<g>
</g>
<g>
</g>
<g>
</g>
<g>
</g>
<g>
</g>
<g>
</g>
<g>
</g>
<g>
</g>
<g>
</g>
<g>
</g>
<g>
</g>
</svg>
