<?xml version="1.0" standalone="no"?>
<!DOCTYPE svg PUBLIC "-//W3C//DTD SVG 1.1//EN" "http://www.w3.org/Graphics/SVG/1.1/DTD/svg11.dtd" >
<svg xmlns="http://www.w3.org/2000/svg" xmlns:xlink="http://www.w3.org/1999/xlink" version="1.1">
<metadata>
Created by FontForge 20170515 at Thu Oct  5 10:36:16 2017
 By fw_worker
URW Software, Copyright 1994 by URW
</metadata>
<defs>
<font id="HandelGotD-Bold" horiz-adv-x="500" >
  <font-face 
    font-family="Handel Gothic D"
    font-weight="700"
    font-stretch="normal"
    units-per-em="1000"
    panose-1="2 0 5 3 5 0 0 2 0 4"
    ascent="800"
    descent="-200"
    x-height="487"
    cap-height="667"
    bbox="-158 -200 1238 898"
    underline-thickness="109"
    underline-position="-93"
    unicode-range="U+0020-FB02"
  />
<missing-glyph horiz-adv-x="250" 
 />
    <glyph glyph-name=".notdef" horiz-adv-x="250" 
 />
    <glyph glyph-name=".null" horiz-adv-x="0" 
 />
    <glyph glyph-name="nonmarkingreturn" horiz-adv-x="250" 
 />
    <glyph glyph-name="space" unicode=" " horiz-adv-x="250" 
 />
    <glyph glyph-name="Atilde" unicode="&#xc3;" horiz-adv-x="723" 
d="M280 667h163l276 -667h-166l-64 155h-254l-64 -155h-167zM267 274h190l-95 233zM527 828q-12 -108 -93 -108q-11 0 -20.5 1t-22 4.5t-29 9.5t-41.5 16q-15 5 -26 5q-30 0 -36 -34h-62q15 108 94 108q14 0 34 -5t50 -16q14 -5 22.5 -7.5t14 -4t9.5 -2t9 -0.5q28 0 35 33
h62z" />
    <glyph glyph-name="Aring" unicode="&#xc5;" horiz-adv-x="723" 
d="M280 667h163l276 -667h-166l-64 155h-254l-64 -155h-167zM267 274h190l-95 233zM363 898q19 0 36 -7.5t30 -20.5t20.5 -30.5t7.5 -36.5q0 -20 -7.5 -37.5t-20.5 -30.5t-30.5 -20.5t-36.5 -7.5q-40 0 -68 28t-28 68t28 67.5t69 27.5zM361 841q-16 0 -27 -11t-11 -27
q0 -17 11 -28t27 -11q17 0 28 11t11 28q0 16 -11 27t-28 11z" />
    <glyph glyph-name="Edieresis" unicode="&#xcb;" horiz-adv-x="612" 
d="M568 548h-185q-36 0 -61.5 -2.5t-44 -8t-31.5 -15t-24 -23.5q-8 -10 -12.5 -19t-7.5 -20.5t-5 -27.5t-4 -41h375v-119h-375q4 -43 16 -72t35 -47t58.5 -26t86.5 -8h179v-119h-185q-53 0 -93.5 4t-71.5 12.5t-54.5 23t-43.5 35.5q-43 45 -65.5 112t-22.5 151
q0 179 113 275q18 15 36 25.5t39.5 16.5t47.5 9t60 3h240v-119zM520 720h-108v110h108v-110zM325 720h-108v110h108v-110z" />
    <glyph glyph-name="Eacute" unicode="&#xc9;" horiz-adv-x="612" 
d="M568 548h-185q-36 0 -61.5 -2.5t-44 -8t-31.5 -15t-24 -23.5q-8 -10 -12.5 -19t-7.5 -20.5t-5 -27.5t-4 -41h375v-119h-375q4 -43 16 -72t35 -47t58.5 -26t86.5 -8h179v-119h-185q-53 0 -93.5 4t-71.5 12.5t-54.5 23t-43.5 35.5q-43 45 -65.5 112t-22.5 151
q0 179 113 275q18 15 36 25.5t39.5 16.5t47.5 9t60 3h240v-119zM391 717h-88l92 123h121z" />
    <glyph glyph-name="Egrave" unicode="&#xc8;" horiz-adv-x="612" 
d="M568 548h-185q-36 0 -61.5 -2.5t-44 -8t-31.5 -15t-24 -23.5q-8 -10 -12.5 -19t-7.5 -20.5t-5 -27.5t-4 -41h375v-119h-375q4 -43 16 -72t35 -47t58.5 -26t86.5 -8h179v-119h-185q-53 0 -93.5 4t-71.5 12.5t-54.5 23t-43.5 35.5q-43 45 -65.5 112t-22.5 151
q0 179 113 275q18 15 36 25.5t39.5 16.5t47.5 9t60 3h240v-119zM352 840l91 -123h-87l-126 123h122z" />
    <glyph glyph-name="Ecircumflex" unicode="&#xca;" horiz-adv-x="612" 
d="M568 548h-185q-36 0 -61.5 -2.5t-44 -8t-31.5 -15t-24 -23.5q-8 -10 -12.5 -19t-7.5 -20.5t-5 -27.5t-4 -41h375v-119h-375q4 -43 16 -72t35 -47t58.5 -26t86.5 -8h179v-119h-185q-53 0 -93.5 4t-71.5 12.5t-54.5 23t-43.5 35.5q-43 45 -65.5 112t-22.5 151
q0 179 113 275q18 15 36 25.5t39.5 16.5t47.5 9t60 3h240v-119zM304 717h-101l108 123h110l109 -123h-101l-63 71z" />
    <glyph glyph-name="Idieresis" unicode="&#xcf;" horiz-adv-x="278" 
d="M69 667h142v-667h-142v667zM261 720h-101v110h101v-110zM119 720h-101v110h101v-110z" />
    <glyph glyph-name="Iacute" unicode="&#xcd;" horiz-adv-x="278" 
d="M68 667h142v-667h-142v667zM174 717h-86l77 123h115z" />
    <glyph glyph-name="Igrave" unicode="&#xcc;" horiz-adv-x="278" 
d="M68 667h142v-667h-142v667zM113 840l77 -123h-86l-106 123h115z" />
    <glyph glyph-name="Icircumflex" unicode="&#xce;" horiz-adv-x="278" 
d="M68 667h142v-667h-142v667zM95 717h-93l82 123h110l81 -123h-92l-44 71z" />
    <glyph glyph-name="Ntilde" unicode="&#xd1;" horiz-adv-x="718" 
d="M203 0h-135v667h181l266 -497v497h135v-667h-174l-273 489v-489zM531 828q-12 -108 -93 -108q-11 0 -20.5 1t-22 4.5t-29 9.5t-41.5 16q-15 5 -26 5q-30 0 -36 -34h-62q15 108 94 108q14 0 34 -5t50 -16q14 -5 22.5 -7.5t14 -4t9.5 -2t9 -0.5q28 0 35 33h62z" />
    <glyph glyph-name="Odieresis" unicode="&#xd6;" horiz-adv-x="723" 
d="M364 672q87 0 155.5 -27t105.5 -76q31 -40 48 -103.5t17 -138.5q0 -165 -80.5 -248t-238.5 -83q-97 0 -169.5 30t-111.5 87q-58 82 -58 218q0 96 25.5 166.5t75.5 109.5q39 32 98.5 48.5t132.5 16.5zM360 559q-48 0 -84.5 -17.5t-56.5 -49.5q-31 -49 -31 -157
q0 -118 41.5 -172.5t132.5 -54.5q90 0 131 55t41 173q0 116 -41.5 169.5t-132.5 53.5zM513 720h-108v110h108v-110zM318 720h-108v110h108v-110z" />
    <glyph glyph-name="Oacute" unicode="&#xd3;" horiz-adv-x="723" 
d="M364 672q87 0 155.5 -27t105.5 -76q31 -40 48 -103.5t17 -138.5q0 -165 -80.5 -248t-238.5 -83q-97 0 -169.5 30t-111.5 87q-58 82 -58 218q0 96 25.5 166.5t75.5 109.5q39 32 98.5 48.5t132.5 16.5zM360 559q-48 0 -84.5 -17.5t-56.5 -49.5q-31 -49 -31 -157
q0 -118 41.5 -172.5t132.5 -54.5q90 0 131 55t41 173q0 116 -41.5 169.5t-132.5 53.5zM386 717h-88l92 123h121z" />
    <glyph glyph-name="Ograve" unicode="&#xd2;" horiz-adv-x="723" 
d="M364 672q87 0 155.5 -27t105.5 -76q31 -40 48 -103.5t17 -138.5q0 -165 -80.5 -248t-238.5 -83q-97 0 -169.5 30t-111.5 87q-58 82 -58 218q0 96 25.5 166.5t75.5 109.5q39 32 98.5 48.5t132.5 16.5zM360 559q-48 0 -84.5 -17.5t-56.5 -49.5q-31 -49 -31 -157
q0 -118 41.5 -172.5t132.5 -54.5q90 0 131 55t41 173q0 116 -41.5 169.5t-132.5 53.5zM343 840l91 -123h-87l-126 123h122z" />
    <glyph glyph-name="Ocircumflex" unicode="&#xd4;" horiz-adv-x="723" 
d="M364 672q87 0 155.5 -27t105.5 -76q31 -40 48 -103.5t17 -138.5q0 -165 -80.5 -248t-238.5 -83q-97 0 -169.5 30t-111.5 87q-58 82 -58 218q0 96 25.5 166.5t75.5 109.5q39 32 98.5 48.5t132.5 16.5zM360 559q-48 0 -84.5 -17.5t-56.5 -49.5q-31 -49 -31 -157
q0 -118 41.5 -172.5t132.5 -54.5q90 0 131 55t41 173q0 116 -41.5 169.5t-132.5 53.5zM299 717h-101l108 123h110l109 -123h-101l-63 71z" />
    <glyph glyph-name="Otilde" unicode="&#xd5;" horiz-adv-x="723" 
d="M364 672q87 0 155.5 -27t105.5 -76q31 -40 48 -103.5t17 -138.5q0 -165 -80.5 -248t-238.5 -83q-97 0 -169.5 30t-111.5 87q-58 82 -58 218q0 96 25.5 166.5t75.5 109.5q39 32 98.5 48.5t132.5 16.5zM360 559q-48 0 -84.5 -17.5t-56.5 -49.5q-31 -49 -31 -157
q0 -118 41.5 -172.5t132.5 -54.5q90 0 131 55t41 173q0 116 -41.5 169.5t-132.5 53.5zM533 828q-12 -108 -93 -108q-11 0 -20.5 1t-22 4.5t-29 9.5t-41.5 16q-15 5 -26 5q-30 0 -36 -34h-62q15 108 94 108q14 0 34 -5t50 -16q14 -5 22.5 -7.5t14 -4t9.5 -2t9 -0.5
q28 0 35 33h62z" />
    <glyph glyph-name="Scaron" unicode="&#x160;" horiz-adv-x="695" 
d="M66 119h304q40 0 63 4t36 12q33 20 33 61q0 23 -11.5 42t-31.5 29q-11 6 -29.5 9t-42.5 3h-123q-60 0 -100.5 10.5t-66.5 33.5q-30 26 -46.5 64.5t-16.5 81.5q0 65 31.5 115.5t84.5 68.5q11 4 24 7t29.5 4.5t38.5 2t51 0.5h330v-119h-298q-24 0 -37.5 -0.5t-22.5 -1
t-15 -1.5t-14 -3q-21 -5 -33 -23.5t-12 -44.5q0 -23 10 -40t28 -25q15 -7 31.5 -9t52.5 -2h107q73 0 117 -12.5t73 -42.5q23 -23 36.5 -63t13.5 -83q0 -54 -23 -100t-62 -70q-12 -8 -27 -13t-35.5 -8t-47.5 -4.5t-64 -1.5h-335v119zM429 840h102l-109 -123h-110l-108 123
h101l62 -71z" />
    <glyph glyph-name="Udieresis" unicode="&#xdc;" horiz-adv-x="703" 
d="M203 267q0 -49 8.5 -76t28.5 -46q20 -17 50.5 -27.5t64.5 -10.5q49 0 84.5 17t49.5 47q6 14 9 37t3 59v400h142v-393q0 -81 -17 -131.5t-55 -82.5q-40 -33 -93.5 -49t-125.5 -16q-158 0 -230 72q-17 18 -29 36.5t-19 41.5t-10 52t-3 67v403h142v-400zM504 720h-108v110
h108v-110zM309 720h-108v110h108v-110z" />
    <glyph glyph-name="Uacute" unicode="&#xda;" horiz-adv-x="703" 
d="M203 267q0 -49 8.5 -76t28.5 -46q20 -17 50.5 -27.5t64.5 -10.5q49 0 84.5 17t49.5 47q6 14 9 37t3 59v400h142v-393q0 -81 -17 -131.5t-55 -82.5q-40 -33 -93.5 -49t-125.5 -16q-158 0 -230 72q-17 18 -29 36.5t-19 41.5t-10 52t-3 67v403h142v-400zM377 717h-88l92 123
h121z" />
    <glyph glyph-name="Ugrave" unicode="&#xd9;" horiz-adv-x="703" 
d="M203 267q0 -49 8.5 -76t28.5 -46q20 -17 50.5 -27.5t64.5 -10.5q49 0 84.5 17t49.5 47q6 14 9 37t3 59v400h142v-393q0 -81 -17 -131.5t-55 -82.5q-40 -33 -93.5 -49t-125.5 -16q-158 0 -230 72q-17 18 -29 36.5t-19 41.5t-10 52t-3 67v403h142v-400zM327 840l91 -123
h-87l-126 123h122z" />
    <glyph glyph-name="Ucircumflex" unicode="&#xdb;" horiz-adv-x="703" 
d="M203 267q0 -49 8.5 -76t28.5 -46q20 -17 50.5 -27.5t64.5 -10.5q49 0 84.5 17t49.5 47q6 14 9 37t3 59v400h142v-393q0 -81 -17 -131.5t-55 -82.5q-40 -33 -93.5 -49t-125.5 -16q-158 0 -230 72q-17 18 -29 36.5t-19 41.5t-10 52t-3 67v403h142v-400zM290 717h-101
l108 123h110l109 -123h-101l-63 71z" />
    <glyph glyph-name="Yacute" unicode="&#xdd;" horiz-adv-x="654" 
d="M3 667h167l153 -260l161 260h168l-260 -380v-287h-142v292zM355 717h-88l92 123h121z" />
    <glyph glyph-name="Zcaron" unicode="&#x17d;" horiz-adv-x="654" 
d="M37 548v119h580v-123l-406 -425h406v-119h-580v116l421 432h-421zM388 840h102l-109 -123h-110l-108 123h101l62 -71z" />
    <glyph glyph-name="Ydieresis" unicode="&#x178;" horiz-adv-x="654" 
d="M3 667h167l153 -260l161 260h168l-260 -380v-287h-142v292zM479 720h-108v110h108v-110zM284 720h-108v110h108v-110z" />
    <glyph glyph-name="adieresis" unicode="&#xe4;" horiz-adv-x="595" 
d="M402 296q0 26 -4.5 43t-16 26.5t-31.5 13.5t-50 4h-226v104h226q30 0 50 -0.5t34 -2t24.5 -3.5t22.5 -6q32 -11 57 -37.5t37 -64.5q7 -21 9 -40.5t2 -58.5v-274h-282q-39 0 -64.5 1t-43 4t-29 8t-22.5 13q-27 20 -41.5 50.5t-14.5 67.5q0 51 24.5 89.5t64.5 51.5
q35 11 110 11h164zM247 192h-18.5t-10.5 -0.5t-7 -1t-7 -1.5q-14 -4 -21.5 -15.5t-7.5 -26.5q0 -23 16.5 -33t55.5 -10h155v88h-155zM448 550h-107v110h107v-110zM262 550h-107v110h107v-110z" />
    <glyph glyph-name="aacute" unicode="&#xe1;" horiz-adv-x="595" 
d="M402 296q0 26 -4.5 43t-16 26.5t-31.5 13.5t-50 4h-226v104h226q30 0 50 -0.5t34 -2t24.5 -3.5t22.5 -6q32 -11 57 -37.5t37 -64.5q7 -21 9 -40.5t2 -58.5v-274h-282q-39 0 -64.5 1t-43 4t-29 8t-22.5 13q-27 20 -41.5 50.5t-14.5 67.5q0 51 24.5 89.5t64.5 51.5
q35 11 110 11h164zM247 192h-18.5t-10.5 -0.5t-7 -1t-7 -1.5q-14 -4 -21.5 -15.5t-7.5 -26.5q0 -23 16.5 -33t55.5 -10h155v88h-155zM322 545h-86l92 130h118z" />
    <glyph glyph-name="agrave" unicode="&#xe0;" horiz-adv-x="595" 
d="M402 296q0 26 -4.5 43t-16 26.5t-31.5 13.5t-50 4h-226v104h226q30 0 50 -0.5t34 -2t24.5 -3.5t22.5 -6q32 -11 57 -37.5t37 -64.5q7 -21 9 -40.5t2 -58.5v-274h-282q-39 0 -64.5 1t-43 4t-29 8t-22.5 13q-27 20 -41.5 50.5t-14.5 67.5q0 51 24.5 89.5t64.5 51.5
q35 11 110 11h164zM247 192h-18.5t-10.5 -0.5t-7 -1t-7 -1.5q-14 -4 -21.5 -15.5t-7.5 -26.5q0 -23 16.5 -33t55.5 -10h155v88h-155zM281 675l92 -130h-86l-124 130h118z" />
    <glyph glyph-name="acircumflex" unicode="&#xe2;" horiz-adv-x="595" 
d="M402 296q0 26 -4.5 43t-16 26.5t-31.5 13.5t-50 4h-226v104h226q30 0 50 -0.5t34 -2t24.5 -3.5t22.5 -6q32 -11 57 -37.5t37 -64.5q7 -21 9 -40.5t2 -58.5v-274h-282q-39 0 -64.5 1t-43 4t-29 8t-22.5 13q-27 20 -41.5 50.5t-14.5 67.5q0 51 24.5 89.5t64.5 51.5
q35 11 110 11h164zM247 192h-18.5t-10.5 -0.5t-7 -1t-7 -1.5q-14 -4 -21.5 -15.5t-7.5 -26.5q0 -23 16.5 -33t55.5 -10h155v88h-155zM238 545h-97l106 130h108l106 -130h-96l-64 79z" />
    <glyph glyph-name="atilde" unicode="&#xe3;" horiz-adv-x="595" 
d="M402 296q0 26 -4.5 43t-16 26.5t-31.5 13.5t-50 4h-226v104h226q30 0 50 -0.5t34 -2t24.5 -3.5t22.5 -6q32 -11 57 -37.5t37 -64.5q7 -21 9 -40.5t2 -58.5v-274h-282q-39 0 -64.5 1t-43 4t-29 8t-22.5 13q-27 20 -41.5 50.5t-14.5 67.5q0 51 24.5 89.5t64.5 51.5
q35 11 110 11h164zM247 192h-18.5t-10.5 -0.5t-7 -1t-7 -1.5q-14 -4 -21.5 -15.5t-7.5 -26.5q0 -23 16.5 -33t55.5 -10h155v88h-155zM464 658q-12 -108 -92 -108q-18 0 -35.5 4.5t-44.5 15.5q-23 10 -34 13t-21 3q-28 0 -36 -34h-60q15 108 94 108q16 0 31.5 -4t47.5 -17
q20 -8 32 -11t23 -3q28 0 35 33h60z" />
    <glyph glyph-name="aring" unicode="&#xe5;" horiz-adv-x="595" 
d="M402 296q0 26 -4.5 43t-16 26.5t-31.5 13.5t-50 4h-226v104h226q30 0 50 -0.5t34 -2t24.5 -3.5t22.5 -6q32 -11 57 -37.5t37 -64.5q7 -21 9 -40.5t2 -58.5v-274h-282q-39 0 -64.5 1t-43 4t-29 8t-22.5 13q-27 20 -41.5 50.5t-14.5 67.5q0 51 24.5 89.5t64.5 51.5
q35 11 110 11h164zM247 192h-18.5t-10.5 -0.5t-7 -1t-7 -1.5q-14 -4 -21.5 -15.5t-7.5 -26.5q0 -23 16.5 -33t55.5 -10h155v88h-155zM302 725q19 0 36 -7.5t30 -20.5t20.5 -30.5t7.5 -36.5q0 -20 -7.5 -37.5t-20.5 -30.5t-30.5 -20.5t-36.5 -7.5q-40 0 -68 28t-28 68
t28 67.5t69 27.5zM300 668q-16 0 -27 -11t-11 -27q0 -17 11 -28t27 -11q17 0 28 11t11 28q0 16 -11 27t-28 11z" />
    <glyph glyph-name="edieresis" unicode="&#xeb;" horiz-adv-x="508" 
d="M463 192h-282q2 -28 10 -43.5t26 -27.5q14 -10 32 -13.5t50 -3.5h164v-104h-178q-58 0 -94.5 10t-69.5 36q-88 67 -88 204q0 64 25.5 118.5t69.5 83.5q28 19 62.5 27t84.5 8h188v-104h-178q-27 0 -46 -4t-31 -14t-18.5 -27t-8.5 -42h282v-104zM442 550h-107v110h107v-110
zM256 550h-107v110h107v-110z" />
    <glyph glyph-name="eacute" unicode="&#xe9;" horiz-adv-x="508" 
d="M463 192h-282q2 -28 10 -43.5t26 -27.5q14 -10 32 -13.5t50 -3.5h164v-104h-178q-58 0 -94.5 10t-69.5 36q-88 67 -88 204q0 64 25.5 118.5t69.5 83.5q28 19 62.5 27t84.5 8h188v-104h-178q-27 0 -46 -4t-31 -14t-18.5 -27t-8.5 -42h282v-104zM318 545h-86l92 130h118z
" />
    <glyph glyph-name="egrave" unicode="&#xe8;" horiz-adv-x="508" 
d="M463 192h-282q2 -28 10 -43.5t26 -27.5q14 -10 32 -13.5t50 -3.5h164v-104h-178q-58 0 -94.5 10t-69.5 36q-88 67 -88 204q0 64 25.5 118.5t69.5 83.5q28 19 62.5 27t84.5 8h188v-104h-178q-27 0 -46 -4t-31 -14t-18.5 -27t-8.5 -42h282v-104zM278 675l92 -130h-86
l-124 130h118z" />
    <glyph glyph-name="ecircumflex" unicode="&#xea;" horiz-adv-x="508" 
d="M463 192h-282q2 -28 10 -43.5t26 -27.5q14 -10 32 -13.5t50 -3.5h164v-104h-178q-58 0 -94.5 10t-69.5 36q-88 67 -88 204q0 64 25.5 118.5t69.5 83.5q28 19 62.5 27t84.5 8h188v-104h-178q-27 0 -46 -4t-31 -14t-18.5 -27t-8.5 -42h282v-104zM232 545h-97l106 130h108
l106 -130h-96l-64 79z" />
    <glyph glyph-name="idieresis" unicode="&#xef;" horiz-adv-x="266" 
d="M200 487v-487h-134v487h134zM253 550h-100v110h100v-110zM113 550h-100v110h100v-110z" />
    <glyph glyph-name="iacute" unicode="&#xed;" horiz-adv-x="266" 
d="M200 487v-487h-134v487h134zM166 545h-85l78 130h112z" />
    <glyph glyph-name="igrave" unicode="&#xec;" horiz-adv-x="266" 
d="M200 487v-487h-134v487h134zM109 675l78 -130h-86l-104 130h112z" />
    <glyph glyph-name="icircumflex" unicode="&#xee;" horiz-adv-x="266" 
d="M200 487v-487h-134v487h134zM89 545h-89l80 130h107l80 -130h-89l-45 82z" />
    <glyph glyph-name="ntilde" unicode="&#xf1;" horiz-adv-x="578" 
d="M324 487q29 0 50.5 -2t38 -6.5t29.5 -12t26 -18.5q51 -48 51 -148v-300h-134v315q0 37 -16 52.5t-53 15.5h-116v-383h-134v487h258zM441 658q-12 -108 -92 -108q-18 0 -35.5 4.5t-44.5 15.5q-23 10 -34 13t-21 3q-28 0 -36 -34h-60q15 108 94 108q16 0 31.5 -4t47.5 -17
q20 -8 32 -11t23 -3q28 0 35 33h60z" />
    <glyph glyph-name="odieresis" unicode="&#xf6;" horiz-adv-x="582" 
d="M293 494q66 0 116.5 -20.5t82.5 -61.5q56 -71 56 -174q0 -57 -18 -102t-52 -77t-82 -49t-108 -17q-121 0 -188 66t-67 186q0 57 18.5 103.5t52 78.5t81.5 49.5t108 17.5zM289 391q-119 0 -119 -150q0 -145 122 -145q119 0 119 149q0 146 -122 146zM437 550h-107v110h107
v-110zM251 550h-107v110h107v-110z" />
    <glyph glyph-name="oacute" unicode="&#xf3;" horiz-adv-x="582" 
d="M293 494q66 0 116.5 -20.5t82.5 -61.5q56 -71 56 -174q0 -57 -18 -102t-52 -77t-82 -49t-108 -17q-121 0 -188 66t-67 186q0 57 18.5 103.5t52 78.5t81.5 49.5t108 17.5zM289 391q-119 0 -119 -150q0 -145 122 -145q119 0 119 149q0 146 -122 146zM312 545h-86l92 130
h118z" />
    <glyph glyph-name="ograve" unicode="&#xf2;" horiz-adv-x="582" 
d="M293 494q66 0 116.5 -20.5t82.5 -61.5q56 -71 56 -174q0 -57 -18 -102t-52 -77t-82 -49t-108 -17q-121 0 -188 66t-67 186q0 57 18.5 103.5t52 78.5t81.5 49.5t108 17.5zM289 391q-119 0 -119 -150q0 -145 122 -145q119 0 119 149q0 146 -122 146zM270 675l92 -130h-86
l-124 130h118z" />
    <glyph glyph-name="ocircumflex" unicode="&#xf4;" horiz-adv-x="582" 
d="M293 494q66 0 116.5 -20.5t82.5 -61.5q56 -71 56 -174q0 -57 -18 -102t-52 -77t-82 -49t-108 -17q-121 0 -188 66t-67 186q0 57 18.5 103.5t52 78.5t81.5 49.5t108 17.5zM289 391q-119 0 -119 -150q0 -145 122 -145q119 0 119 149q0 146 -122 146zM228 545h-97l106 130
h108l106 -130h-96l-64 79z" />
    <glyph glyph-name="otilde" unicode="&#xf5;" horiz-adv-x="582" 
d="M293 494q66 0 116.5 -20.5t82.5 -61.5q56 -71 56 -174q0 -57 -18 -102t-52 -77t-82 -49t-108 -17q-121 0 -188 66t-67 186q0 57 18.5 103.5t52 78.5t81.5 49.5t108 17.5zM289 391q-119 0 -119 -150q0 -145 122 -145q119 0 119 149q0 146 -122 146zM459 658
q-12 -108 -92 -108q-18 0 -35.5 4.5t-44.5 15.5q-23 10 -34 13t-21 3q-28 0 -36 -34h-60q15 108 94 108q16 0 31.5 -4t47.5 -17q20 -8 32 -11t23 -3q28 0 35 33h60z" />
    <glyph glyph-name="scaron" unicode="&#x161;" horiz-adv-x="549" 
d="M489 383h-238q-45 0 -59.5 -8.5t-14.5 -34.5q0 -27 23 -41q7 -4 21 -5.5t43 -1.5h79q81 0 124.5 -36t43.5 -103q0 -23 -6 -44.5t-16.5 -40.5t-25 -33.5t-31.5 -21.5q-27 -13 -109 -13h-277v104h238q25 0 40 0.5t23 1.5q33 5 33 39q0 15 -6.5 26t-18.5 16q-7 4 -19 5
t-37 1h-82q-48 0 -74.5 6.5t-48.5 23.5q-26 20 -40.5 52t-14.5 70q0 36 15 67.5t41 51.5q17 13 41.5 18t66.5 5h286v-104zM348 675h97l-106 -130h-108l-106 130h96l64 -79z" />
    <glyph glyph-name="udieresis" unicode="&#xfc;" horiz-adv-x="584" 
d="M383 487h134v-487h-263q-29 0 -50.5 2t-38 6.5t-29.5 12t-26 18.5q-51 48 -51 148v300h134v-313q0 -33 17 -51.5t47 -18.5h126v383zM435 550h-107v110h107v-110zM249 550h-107v110h107v-110z" />
    <glyph glyph-name="uacute" unicode="&#xfa;" horiz-adv-x="584" 
d="M383 487h134v-487h-263q-29 0 -50.5 2t-38 6.5t-29.5 12t-26 18.5q-51 48 -51 148v300h134v-313q0 -33 17 -51.5t47 -18.5h126v383zM313 545h-86l92 130h118z" />
    <glyph glyph-name="ugrave" unicode="&#xf9;" horiz-adv-x="584" 
d="M383 487h134v-487h-263q-29 0 -50.5 2t-38 6.5t-29.5 12t-26 18.5q-51 48 -51 148v300h134v-313q0 -33 17 -51.5t47 -18.5h126v383zM261 675l92 -130h-86l-124 130h118z" />
    <glyph glyph-name="ucircumflex" unicode="&#xfb;" horiz-adv-x="584" 
d="M383 487h134v-487h-263q-29 0 -50.5 2t-38 6.5t-29.5 12t-26 18.5q-51 48 -51 148v300h134v-313q0 -33 17 -51.5t47 -18.5h126v383zM225 545h-97l106 130h108l106 -130h-96l-64 79z" />
    <glyph glyph-name="yacute" unicode="&#xfd;" horiz-adv-x="574" 
d="M373 487h134v-477q0 -115 -78 -159q-22 -12 -54 -18t-77 -6h-239v104h239q13 0 27.5 2t22.5 5q12 5 17 14.5t7 29.5l1 18h-119q-57 0 -91 11t-60 39q-13 14 -21.5 28.5t-13.5 33t-7 43.5t-2 60v272h134v-259q0 -38 3 -62t10.5 -38t21.5 -19t35 -5h110v383zM309 545h-86
l92 130h118z" />
    <glyph glyph-name="zcaron" unicode="&#x17e;" horiz-adv-x="527" 
d="M31 383v104h459v-101l-281 -282h281v-104h-459v101l281 282h-281zM324 675h97l-106 -130h-108l-106 130h96l64 -79z" />
    <glyph glyph-name="ydieresis" unicode="&#xff;" horiz-adv-x="574" 
d="M373 487h134v-477q0 -115 -78 -159q-22 -12 -54 -18t-77 -6h-239v104h239q13 0 27.5 2t22.5 5q12 5 17 14.5t7 29.5l1 18h-119q-57 0 -91 11t-60 39q-13 14 -21.5 28.5t-13.5 33t-7 43.5t-2 60v272h134v-259q0 -38 3 -62t10.5 -38t21.5 -19t35 -5h110v383zM430 550h-107
v110h107v-110zM244 550h-107v110h107v-110z" />
    <glyph glyph-name="A" unicode="A" horiz-adv-x="723" 
d="M280 667h163l276 -667h-166l-64 155h-254l-64 -155h-167zM267 274h190l-95 233z" />
    <glyph glyph-name="B" unicode="B" horiz-adv-x="699" 
d="M68 667h377q48 0 80 -5.5t54 -17.5q38 -20 60.5 -62t22.5 -90q0 -26 -7.5 -50.5t-20 -45.5t-30.5 -37.5t-39 -25.5q97 -44 97 -156q0 -60 -25.5 -102t-72.5 -60q-39 -15 -127 -15h-369v667zM403 393q30 0 44 3t27 13q14 11 22.5 28.5t8.5 37.5q0 40 -29 59q-13 8 -27 11
t-43 3h-196v-155h193zM403 119q31 0 45 3t27 13q14 11 22.5 28.5t8.5 37.5q0 40 -29 59q-13 8 -27.5 11t-43.5 3h-196v-155h193z" />
    <glyph glyph-name="C" unicode="C" horiz-adv-x="607" 
d="M574 0h-232q-43 0 -76 3.5t-59 11t-47 20t-40 31.5q-43 42 -65.5 109t-22.5 157q0 113 38 192.5t109 112.5q29 14 74.5 22t94.5 8h226v-119h-209q-99 0 -142 -54q-17 -20 -25.5 -58.5t-8.5 -90.5q0 -74 15.5 -124t45.5 -72q39 -30 120 -30h204v-119z" />
    <glyph glyph-name="D" unicode="D" horiz-adv-x="717" 
d="M351 667q103 0 166 -21.5t102 -70.5q15 -18 27 -44.5t21 -58.5t13.5 -67.5t4.5 -72.5q0 -44 -7.5 -92t-20.5 -85q-19 -56 -53.5 -89.5t-88.5 -50.5q-14 -5 -29 -7.5t-33.5 -4.5t-43.5 -2.5t-58 -0.5h-283v667h283zM210 119h141q47 0 80.5 11t51.5 33q21 26 33.5 72
t12.5 98q0 61 -16.5 111t-44.5 73q-20 17 -47 24t-70 7h-141v-429z" />
    <glyph glyph-name="E" unicode="E" horiz-adv-x="612" 
d="M568 548h-185q-36 0 -61.5 -2.5t-44 -8t-31.5 -15t-24 -23.5q-8 -10 -12.5 -19t-7.5 -20.5t-5 -27.5t-4 -41h375v-119h-375q4 -43 16 -72t35 -47t58.5 -26t86.5 -8h179v-119h-185q-53 0 -93.5 4t-71.5 12.5t-54.5 23t-43.5 35.5q-43 45 -65.5 112t-22.5 151
q0 179 113 275q18 15 36 25.5t39.5 16.5t47.5 9t60 3h240v-119z" />
    <glyph glyph-name="F" unicode="F" horiz-adv-x="636" 
d="M600 275h-397v-275h-142v348q0 65 6.5 114.5t18.5 75.5q44 95 159 119q14 3 26 5t25.5 3t31 1.5t42.5 0.5h230v-119h-212q-43 0 -78.5 -4.5t-52.5 -12.5q-54 -26 -54 -101v-36h397v-119z" />
    <glyph glyph-name="G" unicode="G" horiz-adv-x="692" 
d="M640 396v-396h-298q-39 0 -69 2.5t-54 8.5t-44 16t-38 25q-51 40 -78 111t-27 168q0 96 26.5 167t77.5 112q72 57 212 57h292v-119h-275q-95 0 -136 -47.5t-41 -156.5q0 -63 12.5 -112t35.5 -73q39 -40 134 -40h128v158h-186v119h328z" />
    <glyph glyph-name="H" unicode="H" horiz-adv-x="677" 
d="M609 0h-142v275h-257v-275h-142v667h142v-273h257v273h142v-667z" />
    <glyph glyph-name="I" unicode="I" horiz-adv-x="278" 
d="M68 667h142v-667h-142v667z" />
    <glyph glyph-name="J" unicode="J" horiz-adv-x="533" 
d="M15 119h136q33 0 56.5 1t40 4t27.5 7.5t19 11.5q10 9 17 21t11 29t6 41.5t2 58.5v374h142v-374q2 -83 -13.5 -140.5t-52 -93t-96 -49.5t-144.5 -10h-151v119z" />
    <glyph glyph-name="K" unicode="K" horiz-adv-x="659" 
d="M210 0h-142v667h142v-667zM470 667h186l-278 -329l265 -338h-187l-241 338z" />
    <glyph glyph-name="L" unicode="L" horiz-adv-x="533" 
d="M203 667v-374q2 -44 3.5 -68.5t5 -39t9 -21.5t15.5 -16t21 -14.5t27.5 -8.5t40 -4.5t57.5 -1.5h136v-119h-151q-35 0 -58 0.5t-39.5 1.5t-28 3.5t-24.5 5.5q-51 14 -87.5 47t-52.5 81q-8 23 -12 62.5t-4 91.5v374h142z" />
    <glyph glyph-name="M" unicode="M" horiz-adv-x="890" 
d="M440 146l175 521h207v-667h-135v501l-175 -501h-146l-165 501v-501h-135v667h208z" />
    <glyph glyph-name="N" unicode="N" horiz-adv-x="718" 
d="M203 0h-135v667h181l266 -497v497h135v-667h-174l-273 489v-489z" />
    <glyph glyph-name="O" unicode="O" horiz-adv-x="723" 
d="M364 672q87 0 155.5 -27t105.5 -76q31 -40 48 -103.5t17 -138.5q0 -165 -80.5 -248t-238.5 -83q-97 0 -169.5 30t-111.5 87q-58 82 -58 218q0 96 25.5 166.5t75.5 109.5q39 32 98.5 48.5t132.5 16.5zM360 559q-48 0 -84.5 -17.5t-56.5 -49.5q-31 -49 -31 -157
q0 -118 41.5 -172.5t132.5 -54.5q90 0 131 55t41 173q0 116 -41.5 169.5t-132.5 53.5z" />
    <glyph glyph-name="P" unicode="P" horiz-adv-x="686" 
d="M210 0h-142v667h333q44 0 75 -2.5t53.5 -9.5t39.5 -19t34 -30q60 -65 60 -156q0 -53 -19.5 -99t-54.5 -75q-15 -12 -29.5 -20.5t-32 -13.5t-39.5 -7t-50 -2h-228v-233zM403 352q29 0 46.5 4t28.5 15q14 11 21.5 33.5t7.5 50.5q0 33 -13 56t-36 31q-17 6 -52 6h-196v-196
h193z" />
    <glyph glyph-name="Q" unicode="Q" horiz-adv-x="757" 
d="M730 0h-250q-68 0 -106.5 0.5t-49.5 1.5q-87 7 -142 33t-92 78q-58 84 -58 218q0 96 25.5 166.5t75.5 109.5q38 32 97.5 48.5t130.5 16.5q89 0 158 -26.5t107 -76.5q14 -18 26 -44.5t20.5 -57t13.5 -63.5t5 -65q0 -66 -18.5 -119.5t-56.5 -100.5h114v-119zM361 560
q-172 0 -172 -218q0 -48 7.5 -87.5t22.5 -68.5q38 -74 144 -74q89 0 130 55t41 174q0 97 -39 156q-42 63 -134 63z" />
    <glyph glyph-name="R" unicode="R" horiz-adv-x="715" 
d="M210 0h-142v667h326q76 0 123 -9t77 -30q35 -24 54.5 -62.5t19.5 -84.5q0 -151 -127 -195q59 -16 88 -61.5t33 -123.5q2 -23 3.5 -38.5t3 -26t4 -19t5.5 -17.5h-159q-4 11 -5 18t-3 18q-2 14 -3.5 31.5t-2.5 27.5q-5 45 -16 75.5t-32 49t-53.5 26t-79.5 7.5h-114v-253z
M409 372q55 0 78.5 21.5t23.5 70.5q0 62 -49 79q-18 5 -53 5h-199v-176h199z" />
    <glyph glyph-name="S" unicode="S" horiz-adv-x="695" 
d="M66 119h304q40 0 63 4t36 12q33 20 33 61q0 23 -11.5 42t-31.5 29q-11 6 -29.5 9t-42.5 3h-123q-60 0 -100.5 10.5t-66.5 33.5q-30 26 -46.5 64.5t-16.5 81.5q0 65 31.5 115.5t84.5 68.5q11 4 24 7t29.5 4.5t38.5 2t51 0.5h330v-119h-298q-24 0 -37.5 -0.5t-22.5 -1
t-15 -1.5t-14 -3q-21 -5 -33 -23.5t-12 -44.5q0 -23 10 -40t28 -25q15 -7 31.5 -9t52.5 -2h107q73 0 117 -12.5t73 -42.5q23 -23 36.5 -63t13.5 -83q0 -54 -23 -100t-62 -70q-12 -8 -27 -13t-35.5 -8t-47.5 -4.5t-64 -1.5h-335v119z" />
    <glyph glyph-name="T" unicode="T" horiz-adv-x="585" 
d="M5 548v119h575v-119h-220v-548h-142v548h-213z" />
    <glyph glyph-name="U" unicode="U" horiz-adv-x="703" 
d="M203 267q0 -49 8.5 -76t28.5 -46q20 -17 50.5 -27.5t64.5 -10.5q49 0 84.5 17t49.5 47q6 14 9 37t3 59v400h142v-393q0 -81 -17 -131.5t-55 -82.5q-40 -33 -93.5 -49t-125.5 -16q-158 0 -230 72q-17 18 -29 36.5t-19 41.5t-10 52t-3 67v403h142v-400z" />
    <glyph glyph-name="V" unicode="V" horiz-adv-x="719" 
d="M425 0h-142l-281 667h160l196 -502l199 502h160z" />
    <glyph glyph-name="W" unicode="W" horiz-adv-x="1058" 
d="M310 165l139 502h159l140 -502l150 502h146l-216 -667h-161l-138 482l-139 -482h-161l-216 667h147z" />
    <glyph glyph-name="X" unicode="X" horiz-adv-x="637" 
d="M13 667h174l131 -219l142 219h172l-226 -330l226 -337h-167l-147 229l-144 -229h-169l227 337z" />
    <glyph glyph-name="Y" unicode="Y" horiz-adv-x="654" 
d="M3 667h167l153 -260l161 260h168l-260 -380v-287h-142v292z" />
    <glyph glyph-name="Z" unicode="Z" horiz-adv-x="654" 
d="M37 548v119h580v-123l-406 -425h406v-119h-580v116l421 432h-421z" />
    <glyph glyph-name="AE" unicode="&#xc6;" horiz-adv-x="1031" 
d="M488 155h-253l-64 -155h-167l276 667h163l57 -137q15 34 39.5 63t50.5 43q29 17 66 24t91 7h240v-119h-185q-36 0 -61.5 -2.5t-44 -8t-31.5 -15t-24 -23.5q-8 -10 -12.5 -19t-7.5 -20.5t-5 -27.5t-4 -41h375v-119h-375q4 -43 16 -72t35 -47t58.5 -26t86.5 -8h179v-119
h-434zM267 274h190l-95 233z" />
    <glyph glyph-name="OE" unicode="&#x152;" horiz-adv-x="1112" 
d="M883 0q-56 0 -97 4t-72.5 14t-55 26t-44.5 40q-37 -42 -99.5 -65t-143.5 -23q-97 0 -169.5 30t-111.5 87q-58 82 -58 217q0 97 25.5 167.5t75.5 109.5q39 32 98 48.5t130 16.5q81 0 148.5 -23.5t104.5 -65.5q20 23 41.5 39t47 26t56 14.5t69.5 4.5h240v-119h-185
q-36 0 -61.5 -2.5t-44 -8t-31.5 -15t-24 -23.5q-8 -10 -12.5 -19t-7.5 -20.5t-5 -27.5t-4 -41h375v-119h-375q4 -43 16 -72t35 -47t58.5 -26t86.5 -8h179v-119h-185zM360 559q-48 0 -84.5 -17.5t-56.5 -49.5q-31 -49 -31 -158q0 -117 41.5 -171.5t132.5 -54.5q90 0 131 55
t41 173q0 116 -41.5 169.5t-132.5 53.5z" />
    <glyph glyph-name="Oslash" unicode="&#xd8;" horiz-adv-x="723" 
d="M151 -4h-119l75 94q-38 46 -56.5 104.5t-18.5 135.5q0 97 25.5 167.5t75.5 109.5q38 32 97.5 48.5t130.5 16.5q103 0 181 -37l29 36h119l-73 -92q36 -43 54.5 -107t18.5 -145q0 -91 -26.5 -160t-76.5 -109q-37 -29 -93 -45.5t-122 -16.5q-105 0 -190 39zM266 131
q40 -23 98 -23q88 0 129 55t41 173q0 41 -4 68.5t-14 56.5zM457 536q-40 23 -97 23q-48 0 -84.5 -17.5t-56.5 -49.5q-31 -51 -31 -156q0 -42 4 -71.5t15 -58.5z" />
    <glyph glyph-name="Ccedilla" unicode="&#xc7;" horiz-adv-x="607" 
d="M385 -41h11q51 0 74 -19t23 -61q0 -56 -43 -72q-10 -3 -25.5 -5t-35.5 -2h-85v54h71q23 0 32 6t9 23t-8.5 23.5t-31.5 6.5h-47v87q-75 0 -123 15.5t-86 50.5q-43 42 -65.5 109t-22.5 157q0 113 38 192.5t109 112.5q29 14 74.5 22t94.5 8h226v-119h-209q-99 0 -142 -54
q-17 -20 -25.5 -58.5t-8.5 -90.5q0 -74 15.5 -124t45.5 -72q39 -30 120 -30h204v-119h-189v-41z" />
    <glyph glyph-name="Eth" unicode="&#xd0;" horiz-adv-x="717" 
d="M4 281v110h64v276h283q103 0 166 -21.5t102 -70.5q15 -18 27 -44.5t21 -58.5t13.5 -67.5t4.5 -72.5q0 -45 -7.5 -92.5t-20.5 -84.5q-19 -56 -53.5 -89.5t-88.5 -50.5q-14 -5 -28.5 -7.5t-33.5 -4.5t-43.5 -2.5t-58.5 -0.5h-283v281h-64zM210 119h141q96 0 132 44
q21 26 33.5 72t12.5 98q0 61 -16.5 110.5t-44.5 73.5q-20 17 -47 24t-70 7h-141v-157h149v-110h-149v-162z" />
    <glyph glyph-name="Lslash" unicode="&#x141;" horiz-adv-x="537" 
d="M207 443l124 64v-111l-124 -65v-38q2 -44 3.5 -68.5t4.5 -39t9 -21.5t16 -16t21 -14.5t27.5 -8.5t40 -4.5t57.5 -1.5h136v-119h-150q-50 -1 -85.5 1t-62 8.5t-47.5 18t-42 29.5q-21 20 -34 39.5t-21 45t-11 59.5t-4 82l-62 -30v111l62 31v272h142v-224z" />
    <glyph glyph-name="Thorn" unicode="&#xde;" horiz-adv-x="686" 
d="M68 667h142v-107h195q43 0 73.5 -2.5t53 -9.5t39.5 -18.5t33 -29.5q29 -32 44 -72t15 -85q0 -53 -19.5 -99t-54.5 -75q-15 -12 -29.5 -20.5t-32 -13.5t-39.5 -7t-50 -2h-228v-126h-142v667zM405 245q27 0 44.5 4.5t28.5 14.5q14 11 21.5 33.5t7.5 50.5q0 33 -13 56
t-37 31q-17 6 -52 6h-195v-196h195z" />
    <glyph glyph-name="a" unicode="a" horiz-adv-x="595" 
d="M402 296q0 26 -4.5 43t-16 26.5t-31.5 13.5t-50 4h-226v104h226q30 0 50 -0.5t34 -2t24.5 -3.5t22.5 -6q32 -11 57 -37.5t37 -64.5q7 -21 9 -40.5t2 -58.5v-274h-282q-39 0 -64.5 1t-43 4t-29 8t-22.5 13q-27 20 -41.5 50.5t-14.5 67.5q0 51 24.5 89.5t64.5 51.5
q35 11 110 11h164zM247 192h-18.5t-10.5 -0.5t-7 -1t-7 -1.5q-14 -4 -21.5 -15.5t-7.5 -26.5q0 -23 16.5 -33t55.5 -10h155v88h-155z" />
    <glyph glyph-name="b" unicode="b" horiz-adv-x="597" 
d="M319 487q67 0 113.5 -18.5t78.5 -57.5q26 -30 39 -71.5t13 -89.5q0 -72 -27.5 -127t-79.5 -87q-17 -11 -33.5 -17.5t-36.5 -11t-44.5 -6t-57.5 -1.5h-218v667h134v-180h119zM200 104h99q60 0 93.5 38t33.5 104q0 137 -127 137h-99v-279z" />
    <glyph glyph-name="c" unicode="c" horiz-adv-x="510" 
d="M472 383h-160q-75 0 -108.5 -32.5t-33.5 -107.5q0 -81 51 -115q20 -14 42.5 -19t63.5 -5h145v-104h-183q-37 0 -65.5 3.5t-51.5 11.5t-41.5 21t-34.5 31q-63 70 -63 178q0 130 75 194q30 26 71.5 37t109.5 11h183v-104z" />
    <glyph glyph-name="d" unicode="d" horiz-adv-x="592" 
d="M391 667h134v-667h-231q-36 0 -64 3t-50.5 10.5t-41 19t-36.5 29.5q-69 67 -69 185q0 129 88 198q54 42 144 42h126v180zM391 383h-97q-59 0 -92 -36t-33 -100q0 -67 33.5 -105t91.5 -38h97v279z" />
    <glyph glyph-name="e" unicode="e" horiz-adv-x="508" 
d="M463 192h-282q2 -28 10 -43.5t26 -27.5q14 -10 32 -13.5t50 -3.5h164v-104h-178q-58 0 -94.5 10t-69.5 36q-88 67 -88 204q0 64 25.5 118.5t69.5 83.5q28 19 62.5 27t84.5 8h188v-104h-178q-27 0 -46 -4t-31 -14t-18.5 -27t-8.5 -42h282v-104z" />
    <glyph glyph-name="f" unicode="f" horiz-adv-x="380" 
d="M18 383v104h88v29q0 80 33.5 115.5t107.5 35.5h118v-104h-68q-31 0 -44 -12.5t-13 -41.5v-22h125v-104h-125v-383h-134v383h-88z" />
    <glyph glyph-name="g" unicode="g" horiz-adv-x="599" 
d="M533 4q0 -39 -10 -72.5t-27 -55.5q-23 -27 -55.5 -38t-94.5 -11h-267v104h249q22 0 36 3t21.5 10.5t10.5 21t3 34.5h-123q-60 0 -97.5 12.5t-69.5 41.5q-36 34 -54.5 82t-18.5 108q0 139 89 201q32 23 67.5 32.5t90.5 9.5h250v-483zM288 383q-115 0 -115 -140
q0 -139 122 -139h104v279h-111z" />
    <glyph glyph-name="h" unicode="h" horiz-adv-x="597" 
d="M200 487h137q61 0 95.5 -9.5t58.5 -33.5q46 -44 46 -140v-304h-134v277q0 33 -4 53.5t-14.5 32t-29 16t-47.5 4.5h-108v-383h-134v667h134v-180z" />
    <glyph glyph-name="i" unicode="i" horiz-adv-x="266" 
d="M200 487v-487h-134v487h134zM66 667h134v-130h-134v130z" />
    <glyph glyph-name="j" unicode="j" horiz-adv-x="298" 
d="M232 39q0 -70 -14.5 -111t-46.5 -65q-23 -17 -58.5 -26.5t-77.5 -9.5h-59v102h34q56 0 74 22q8 10 11 26t3 52v458h134v-448zM98 667h134v-126h-134v126z" />
    <glyph glyph-name="k" unicode="k" horiz-adv-x="544" 
d="M200 294l179 193h150l-190 -193h37q69 0 98 -44q14 -20 19.5 -53.5t5.5 -88.5v-108h-134v114q0 45 -15.5 61t-58.5 16h-91v-191h-134v667h134v-373z" />
    <glyph glyph-name="l" unicode="l" horiz-adv-x="266" 
d="M66 0v667h134v-667h-134z" />
    <glyph glyph-name="m" unicode="m" horiz-adv-x="822" 
d="M558 487q33 0 58 -2.5t44 -7.5t33 -13.5t26 -21.5q21 -23 32.5 -57t11.5 -75v-310h-134v289q0 18 -0.5 30t-2.5 20t-5.5 14t-9.5 11q-19 19 -62 19h-71v-383h-134v383h-144v-383h-134v487h492z" />
    <glyph glyph-name="n" unicode="n" horiz-adv-x="578" 
d="M324 487q29 0 50.5 -2t38 -6.5t29.5 -12t26 -18.5q51 -48 51 -148v-300h-134v315q0 37 -16 52.5t-53 15.5h-116v-383h-134v487h258z" />
    <glyph glyph-name="o" unicode="o" horiz-adv-x="582" 
d="M293 494q66 0 116.5 -20.5t82.5 -61.5q56 -71 56 -174q0 -57 -18 -102t-52 -77t-82 -49t-108 -17q-121 0 -188 66t-67 186q0 57 18.5 103.5t52 78.5t81.5 49.5t108 17.5zM289 391q-119 0 -119 -150q0 -145 122 -145q119 0 119 149q0 146 -122 146z" />
    <glyph glyph-name="p" unicode="p" horiz-adv-x="590" 
d="M300 487q34 0 59 -2t44.5 -6.5t35.5 -13t31 -20.5q87 -67 87 -209q0 -107 -64 -173q-32 -33 -73 -48t-102 -15h-118v-183h-134v670h234zM200 104h82q138 0 138 142q0 66 -33 101.5t-95 35.5h-92v-279z" />
    <glyph glyph-name="q" unicode="q" horiz-adv-x="596" 
d="M530 -183h-134v183h-129q-111 0 -172 65q-30 33 -46 77.5t-16 95.5q0 68 22.5 121t64.5 86q16 12 31.5 20.5t35 13t44.5 6.5t59 2h240v-670zM298 383q-63 0 -95.5 -35.5t-32.5 -103.5q0 -69 33.5 -104.5t99.5 -35.5h93v279h-98z" />
    <glyph glyph-name="r" unicode="r" horiz-adv-x="468" 
d="M264 487q61 0 94 -8t56 -29q22 -20 31 -50t9 -85v-48h-129v26q0 52 -18.5 71t-67.5 19h-39v-383h-134v487h198z" />
    <glyph glyph-name="s" unicode="s" horiz-adv-x="549" 
d="M489 383h-238q-45 0 -59.5 -8.5t-14.5 -34.5q0 -27 23 -41q7 -4 21 -5.5t43 -1.5h79q81 0 124.5 -36t43.5 -103q0 -23 -6 -44.5t-16.5 -40.5t-25 -33.5t-31.5 -21.5q-27 -13 -109 -13h-277v104h238q25 0 40 0.5t23 1.5q33 5 33 39q0 15 -6.5 26t-18.5 16q-7 4 -19 5
t-37 1h-82q-48 0 -74.5 6.5t-48.5 23.5q-26 20 -40.5 52t-14.5 70q0 36 15 67.5t41 51.5q17 13 41.5 18t66.5 5h286v-104z" />
    <glyph glyph-name="t" unicode="t" horiz-adv-x="385" 
d="M101 667h134v-180h124v-104h-124v-177q0 -38 2 -53t9 -25q16 -24 60 -24h53v-104h-97q-42 0 -70 8.5t-48 28.5q-25 23 -34 55t-9 91v200h-85v104h85v180z" />
    <glyph glyph-name="u" unicode="u" horiz-adv-x="584" 
d="M383 487h134v-487h-263q-29 0 -50.5 2t-38 6.5t-29.5 12t-26 18.5q-51 48 -51 148v300h134v-313q0 -33 17 -51.5t47 -18.5h126v383z" />
    <glyph glyph-name="v" unicode="v" horiz-adv-x="561" 
d="M413 487h142l-210 -487h-144l-194 487h146l124 -335z" />
    <glyph glyph-name="w" unicode="w" horiz-adv-x="822" 
d="M344 487h134v-383h144v383h134v-487h-492q-33 0 -58 2t-44 7.5t-33 14t-26 21.5q-21 23 -32.5 57t-11.5 75v310h134v-289q0 -36 3.5 -50.5t14.5 -24.5q19 -19 62 -19h71v383z" />
    <glyph glyph-name="x" unicode="x" horiz-adv-x="525" 
d="M12 487h149l103 -144l100 144h157l-182 -246l182 -241h-157l-100 139l-103 -139h-157l183 241z" />
    <glyph glyph-name="y" unicode="y" horiz-adv-x="574" 
d="M373 487h134v-477q0 -115 -78 -159q-22 -12 -54 -18t-77 -6h-239v104h239q13 0 27.5 2t22.5 5q12 5 17 14.5t7 29.5l1 18h-119q-57 0 -91 11t-60 39q-13 14 -21.5 28.5t-13.5 33t-7 43.5t-2 60v272h134v-259q0 -38 3 -62t10.5 -38t21.5 -19t35 -5h110v383z" />
    <glyph glyph-name="z" unicode="z" horiz-adv-x="527" 
d="M31 383v104h459v-101l-281 -282h281v-104h-459v101l281 282h-281z" />
    <glyph glyph-name="ae" unicode="&#xe6;" horiz-adv-x="863" 
d="M314 487q38 0 63.5 -1.5t43.5 -5.5t30.5 -12t26.5 -20q31 22 65 30.5t89 8.5h188v-104h-179q-27 0 -46 -4t-31 -14t-18 -27t-9 -42h283v-104h-283q2 -28 10.5 -43.5t26.5 -27.5q14 -10 32 -13.5t50 -3.5h164v-104h-566q-39 0 -64.5 1t-43 4t-29 8t-22.5 13
q-27 20 -41.5 50.5t-14.5 67.5q0 51 24.5 89.5t64.5 51.5q35 11 110 11h164q0 26 -4.5 43t-16 26.5t-31.5 13.5t-50 4h-226v104h240zM247 192h-18.5t-10.5 -0.5t-7 -1t-7 -1.5q-14 -4 -21.5 -15.5t-7.5 -26.5q0 -23 16.5 -33t55.5 -10h155v88h-155z" />
    <glyph glyph-name="oe" unicode="&#x153;" horiz-adv-x="897" 
d="M674 0q-35 0 -61 3.5t-47.5 11t-40.5 20.5t-39 32q-34 -36 -84.5 -55t-113.5 -19q-121 0 -188 66t-67 186q0 57 18 103t51.5 78.5t80.5 50t106 17.5q65 0 114 -18t80 -54q16 18 34 30.5t39.5 20t47.5 11t60 3.5h188v-104h-178q-27 0 -46 -4t-31 -14t-18.5 -27t-8.5 -42
h282v-104h-282q2 -28 10 -43.5t26 -27.5q14 -10 32 -13.5t50 -3.5h164v-104h-178zM289 392q-119 0 -119 -151q0 -145 121 -145q120 0 120 149q0 147 -122 147z" />
    <glyph glyph-name="oslash" unicode="&#xf8;" horiz-adv-x="582" 
d="M460 494h102l-71 -80q31 -38 44.5 -80t13.5 -96q0 -57 -18 -102.5t-51.5 -77t-82 -48.5t-108.5 -17q-42 0 -74 7t-65 24l-28 -31h-102l69 78q-56 65 -56 175q0 57 18 102.5t52 78t81 50t106 17.5q42 0 76.5 -7t66.5 -24zM352 379q-25 13 -63 13q-119 0 -119 -150
q0 -23 2.5 -39.5t7.5 -33.5zM230 109q27 -14 62 -14q120 0 120 149q0 26 -2.5 42t-8.5 33z" />
    <glyph glyph-name="germandbls" unicode="&#xdf;" horiz-adv-x="603" 
d="M200 0h-134v472q0 57 15 93t50 62q28 21 68 32.5t86 11.5q43 0 79.5 -10.5t62 -29t40 -45t14.5 -57.5q0 -61 -52 -103q65 -8 102 -60t37 -134q0 -63 -21 -111.5t-60 -77.5q-48 -35 -128 -42q-6 0 -10.5 -0.5t-12 -0.5h-20.5h-36h-47v104h69q22 0 37.5 1.5t27 4.5t20 9
t16.5 15q29 33 29 93q0 78 -46 109q-17 10 -38.5 14t-65.5 4h-82v-354zM301 458q42 0 57.5 10t15.5 37q0 62 -74 62q-30 0 -49.5 -3.5t-30.5 -13.5t-15.5 -26.5t-4.5 -42.5v-23h101z" />
    <glyph glyph-name="dotlessi" unicode="&#x131;" horiz-adv-x="266" 
d="M200 487v-487h-134v487h134z" />
    <glyph glyph-name="fi" unicode="&#xfb01;" horiz-adv-x="613" 
d="M547 0h-134v383h-173v-383h-134v383h-88v104h88v29q0 80 33.5 115.5t107.5 35.5h98v-104h-48q-31 0 -44 -12.5t-13 -41.5v-22h307v-487zM413 667h134v-130h-134v130z" />
    <glyph glyph-name="fl" unicode="&#xfb02;" horiz-adv-x="613" 
d="M345 563h-48q-31 0 -44 -12.5t-13 -41.5v-22h105v-104h-105v-383h-134v383h-88v104h88v29q0 80 33.5 115.5t107.5 35.5h98v-104zM413 0v667h134v-667h-134z" />
    <glyph glyph-name="ccedilla" unicode="&#xe7;" horiz-adv-x="510" 
d="M328 -45h10q44 0 63 -13q12 -8 19 -24.5t7 -35.5q0 -24 -10.5 -41t-29.5 -24q-18 -6 -56 -6h-78v49h70q30 0 30 27q0 17 -7 22.5t-27 5.5h-42v85q-32 1 -56.5 4t-44 9t-36 16t-31.5 24q-76 71 -76 192q0 130 75 194q30 26 72 37t110 11h182v-104h-160q-76 0 -109 -32.5
t-33 -107.5q0 -81 51 -115q20 -14 42.5 -19t63.5 -5h145v-104h-144v-45z" />
    <glyph glyph-name="lslash" unicode="&#x142;" horiz-adv-x="266" 
d="M200 412l62 42v-100l-62 -42v-312h-134v254l-63 -43v100l63 43v313h134v-255z" />
    <glyph glyph-name="eth" unicode="&#xf0;" horiz-adv-x="584" 
d="M142 490l-36 56l55 38q-8 3 -26.5 9.5t-36.5 12.5l49 79q23 -4 57 -12.5t62 -18.5l95 64l38 -56l-61 -41q42 -26 71.5 -51t52.5 -53q43 -53 65.5 -118.5t22.5 -136.5q0 -131 -79 -210q-29 -29 -75.5 -44t-105.5 -15q-122 0 -189.5 66t-67.5 186q0 55 18 101t50 79
t77.5 51t99.5 18q22 0 31.5 -1.5t23.5 -7.5q-14 17 -40.5 34.5t-59.5 31.5zM289 392q-119 0 -119 -151q0 -145 122 -145q119 0 119 149q0 147 -122 147z" />
    <glyph glyph-name="thorn" unicode="&#xfe;" horiz-adv-x="590" 
d="M300 487q34 0 59 -2t44.5 -6.5t35.5 -13t31 -20.5q87 -67 87 -209q0 -107 -64 -173q-32 -33 -73 -48t-102 -15h-118v-183h-134v850h134v-180h100zM200 104h82q138 0 138 142q0 66 -33 101.5t-95 35.5h-92v-279z" />
    <glyph glyph-name="one" unicode="1" horiz-adv-x="278" 
d="M68 0v667h142v-667h-142z" />
    <glyph glyph-name="two" unicode="2" horiz-adv-x="661" 
d="M612 118v-118h-577v177q0 60 14 101t43 70q13 13 26.5 22t31.5 13.5t41.5 6.5t58.5 2h109q24 0 47 4.5t34 10.5q33 20 33 60q0 22 -9.5 40.5t-25.5 27.5q-11 6 -33 10t-46 4h-313v118h343q69 0 112 -11t70 -35t42.5 -63.5t15.5 -84.5q0 -61 -21.5 -106t-59.5 -66
q-50 -27 -149 -27h-94q-52 0 -77 -7t-36 -24q-6 -9 -10.5 -28.5t-4.5 -37.5v-59h435z" />
    <glyph glyph-name="three" unicode="3" horiz-adv-x="619" 
d="M33 118h286q58 0 82 18t24 61q0 24 -9 42.5t-26 27.5q-9 5 -28 8t-43 3h-223v118h223q37 0 54.5 3.5t29.5 13.5q10 8 15.5 24t5.5 34q0 21 -8.5 38.5t-23.5 27.5q-11 8 -25 10t-48 2h-286v118h311q34 0 54.5 -1t33 -2.5t21.5 -4t21 -7.5q48 -20 77 -66.5t29 -102.5
q0 -48 -21.5 -83.5t-67.5 -61.5q90 -58 90 -161q0 -47 -18.5 -83t-53.5 -59q-17 -11 -33 -17.5t-37 -10.5t-48 -5.5t-65 -1.5h-293v118z" />
    <glyph glyph-name="four" unicode="4" horiz-adv-x="706" 
d="M25 257l376 410h187v-433h88v-118h-88v-116h-142v116h-421v141zM446 234v285l-262 -285h262z" />
    <glyph glyph-name="five" unicode="5" horiz-adv-x="676" 
d="M606 549h-406v-153h211q64 0 101.5 -9t63.5 -30q32 -26 49 -65.5t17 -87.5q0 -63 -29 -109.5t-83 -70.5q-31 -13 -72 -18.5t-108 -5.5h-292v118h292q28 0 53.5 2.5t39.5 7.5q20 7 31.5 25.5t11.5 43.5q0 27 -13 48t-34 27q-6 2 -11 3t-13 1.5t-23 1t-42 0.5h-292v389h548
v-118z" />
    <glyph glyph-name="six" unicode="6" horiz-adv-x="691" 
d="M417 393q39 0 67 -1.5t48 -6t35 -12t28 -19.5q61 -52 61 -147q0 -117 -104 -177q-31 -17 -75.5 -25.5t-107.5 -8.5q-45 0 -80.5 3.5t-64.5 12t-52 21.5t-43 32q-45 43 -70.5 114t-25.5 156q0 44 7.5 86t22 79t34.5 66.5t45 48.5q19 15 40.5 25t48.5 16t62 8.5t81 2.5h246
v-118h-203q-74 1 -114.5 -5.5t-61.5 -22.5q-23 -17 -36 -51t-13 -77h225zM192 275q1 -39 7.5 -66t21.5 -50q9 -14 21.5 -24t30.5 -16t42 -8.5t57 -2.5q69 0 98.5 19.5t29.5 65.5q0 44 -33 68q-12 8 -27.5 11t-47.5 3h-200z" />
    <glyph glyph-name="seven" unicode="7" horiz-adv-x="632" 
d="M609 549l-405 -549h-174l419 549h-422v118h582v-118z" />
    <glyph glyph-name="eight" unicode="8" horiz-adv-x="707" 
d="M138 333q-28 17 -47 34t-31 36t-17 41.5t-5 50.5q0 60 28.5 101t84.5 60q12 4 27.5 7t37 4.5t51 2.5t69.5 1q58 0 96 -0.5t63.5 -3t41.5 -6.5t31 -10q46 -20 73 -64t27 -101q0 -55 -24.5 -92.5t-77.5 -60.5q26 -15 39.5 -25t24.5 -24q16 -20 25.5 -48t9.5 -57
q0 -36 -16 -73t-44 -63q-14 -13 -33 -22t-46.5 -14.5t-65.5 -8t-89 -2.5h-32t-36.5 0.5t-35.5 1t-29 1.5q-51 2 -85.5 14.5t-60.5 38.5t-40 58t-14 67q0 27 9 55t25 49q11 14 25 25t41 27zM351 559q-90 0 -113 -10q-44 -16 -44 -76q0 -65 52 -77q4 -1 15 -2t26 -1.5t32.5 -1
t33.5 -0.5q100 0 120 10q39 16 39 72q0 66 -59 80q-5 1 -15.5 2t-25 2t-30.5 1.5t-31 0.5zM352 281q-43 0 -73 -3t-42 -8q-42 -18 -42 -77q0 -67 52 -80q4 -1 15 -2t26 -1.5t32 -1t32 -0.5q99 0 119 10q38 18 38 74q0 68 -57 83q-5 1 -15.5 2t-25 2t-30 1.5t-29.5 0.5z" />
    <glyph glyph-name="nine" unicode="9" horiz-adv-x="691" 
d="M274 274q-39 0 -67 1.5t-48.5 6t-35 12t-27.5 19.5q-61 52 -61 147q0 117 104 177q31 17 75.5 25.5t107.5 8.5q90 0 145 -16t95 -53q45 -43 70.5 -114t25.5 -156q0 -44 -8 -86t-22 -79t-34 -66.5t-45 -48.5q-20 -15 -41 -25t-48 -16t-62 -8.5t-81 -2.5h-246v118h203
q74 -1 114.5 5t61.5 23q23 17 36 51t13 77h-225zM499 392q-1 39 -7.5 66t-21.5 50q-19 28 -52 39.5t-95 11.5q-42 0 -64 -4t-36 -14q-15 -10 -23.5 -28.5t-8.5 -39.5t8.5 -38.5t25.5 -28.5q11 -8 26.5 -11t47.5 -3h200z" />
    <glyph glyph-name="zero" unicode="0" horiz-adv-x="725" 
d="M363 671q328 0 328 -337q0 -172 -77 -255t-236 -83q-175 0 -260 82.5t-85 253.5q0 175 80 257t250 82zM355 559q-47 0 -83.5 -20.5t-55.5 -56.5q-11 -23 -19 -63.5t-8 -79.5q0 -46 9.5 -92t23.5 -71q20 -35 56 -51.5t92 -16.5q54 0 87 19.5t53 62.5q11 23 18 65t7 84
q0 53 -12.5 98t-34.5 71q-20 24 -55.5 37.5t-77.5 13.5z" />
    <glyph glyph-name="sterling" unicode="&#xa3;" horiz-adv-x="642" 
d="M572 549h-188q-25 0 -41.5 -0.5t-28 -3t-19.5 -6t-15 -9.5q-31 -26 -31 -106v-53h220v-83h-220v-170h366v-118h-562v118h54v170h-54v83h54v13q0 48 3 83t10 61.5t18.5 45.5t28.5 35q24 23 53.5 36t67.5 18q10 1 17 2t16.5 1.5t24 0.5h38.5h188v-118z" />
    <glyph glyph-name="dollar" unicode="$" horiz-adv-x="696" 
d="M308 280q-41 0 -66.5 0.5t-43 2.5t-30.5 5.5t-29 9.5q-46 19 -75 66t-29 105q0 36 11.5 69.5t31 59.5t46 43.5t56.5 21.5q7 1 20.5 1.5t31 1t37 1t39.5 0.5v96h82v-96h234v-119h-234v-149q41 0 68.5 -1t47 -4t34.5 -8t31 -13q43 -22 66.5 -67.5t23.5 -108.5q0 -30 -7 -58
t-20 -51.5t-31 -41t-40 -27.5q-14 -6 -27 -10t-31.5 -6t-45.5 -2.5t-69 -0.5v-98h-82v98h-241v119h241v161zM390 119q20 1 33.5 2t24.5 4q24 5 39.5 25.5t15.5 46.5q0 23 -11.5 42t-31.5 29q-11 6 -26 8.5t-44 3.5v-161zM308 548q-17 0 -33 -1t-27 -3q-56 -8 -56 -70
q0 -64 69 -73q4 -1 6.5 -1.5t7 -0.5h12h21.5v149z" />
    <glyph glyph-name="cent" unicode="&#xa2;" horiz-adv-x="511" 
d="M366 171h106v-104h-106v-98h-76v98q-68 0 -109 12t-72 41q-76 71 -76 191q0 78 28.5 135t81.5 83q48 24 147 24v98h76v-98h106v-104h-106v-278zM290 448q-65 -5 -92.5 -37t-27.5 -101q0 -63 30.5 -98t89.5 -40v276z" />
    <glyph glyph-name="florin" unicode="&#x192;" horiz-adv-x="506" 
d="M91 316l17 104h88l15 96q12 74 45 109q41 42 120 42h118l-17 -104h-67q-32 0 -46.5 -12.5t-19.5 -41.5l-14 -89h125l-17 -104h-125l-47 -299q-7 -42 -19.5 -72t-32 -49t-48 -27.5t-66.5 -8.5h-118l16 104h68q41 0 55 20q5 7 7 16t7 35l44 281h-88z" />
    <glyph glyph-name="yen" unicode="&#xa5;" horiz-adv-x="629" 
d="M3 667h166l140 -261l147 261h169l-224 -344h134v-80h-157v-53h137v-80h-137v-110h-142v110h-137v80h137v53h-157v80h138z" />
    <glyph glyph-name="onesuperior" unicode="&#xb9;" horiz-adv-x="474" 
d="M189 267v400h96v-400h-96z" />
    <glyph glyph-name="twosuperior" unicode="&#xb2;" horiz-adv-x="474" 
d="M421 343v-76h-370v108q0 69 37 102q16 16 38 21.5t64 5.5h68q36 0 52.5 10t16.5 32q0 45 -69 45h-200v76h219q45 0 72.5 -6.5t44.5 -21.5q18 -15 28 -38.5t10 -51.5q0 -38 -13.5 -65t-39.5 -40q-34 -16 -96 -16h-59q-23 0 -38 -2t-23.5 -8t-12 -16.5t-3.5 -26.5v-32h274z
" />
    <glyph glyph-name="threesuperior" unicode="&#xb3;" horiz-adv-x="474" 
d="M61 343h184q35 0 49 10t14 33q0 12 -5 22.5t-14 15.5q-8 4 -16 5t-28 1h-144v77h144q36 0 49.5 9t13.5 32q0 25 -18 36q-7 5 -16 6t-29 1h-184v76h199q21 0 35.5 -0.5t25 -2t18.5 -4t16 -6.5q27 -13 42.5 -39t15.5 -58q0 -58 -53 -88q53 -35 53 -95q0 -58 -47 -86
q-11 -6 -21.5 -10.5t-24 -6.5t-30.5 -3t-41 -1h-188v76z" />
    <glyph glyph-name="period" unicode="." horiz-adv-x="224" 
d="M172 0h-121v130h121v-130z" />
    <glyph glyph-name="colon" unicode=":" horiz-adv-x="224" 
d="M172 0h-121v130h121v-130zM172 234h-121v130h121v-130z" />
    <glyph glyph-name="periodcentered" horiz-adv-x="224" 
d="M172 268h-121v130h121v-130z" />
    <glyph glyph-name="periodcentered" unicode="&#xb7;" horiz-adv-x="224" 
d="M172 268h-121v130h121v-130z" />
    <glyph glyph-name="ellipsis" unicode="&#x2026;" horiz-adv-x="672" 
d="M172 0h-121v130h121v-130zM396 0h-121v130h121v-130zM620 0h-121v130h121v-130z" />
    <glyph glyph-name="comma" unicode="," horiz-adv-x="234" 
d="M182 14l-77 -151h-61l61 137h-44v130h121v-116z" />
    <glyph glyph-name="semicolon" unicode=";" horiz-adv-x="234" 
d="M182 234h-121v130h121v-130zM182 14l-77 -151h-61l61 137h-44v130h121v-116z" />
    <glyph glyph-name="quoteleft" unicode="&#x2018;" horiz-adv-x="234" 
d="M51 516l77 151h61l-61 -137h44v-130h-121v116z" />
    <glyph glyph-name="quotedblright" unicode="&#x201d;" horiz-adv-x="428" 
d="M182 551l-77 -151h-61l61 137h-44v130h121v-116zM377 551l-77 -151h-61l61 137h-44v130h121v-116z" />
    <glyph glyph-name="quotedblleft" unicode="&#x201c;" horiz-adv-x="428" 
d="M51 516l77 151h61l-61 -137h44v-130h-121v116zM246 516l77 151h61l-61 -137h44v-130h-121v116z" />
    <glyph glyph-name="quotedblbase" unicode="&#x201e;" horiz-adv-x="428" 
d="M182 14l-77 -151h-61l61 137h-44v130h121v-116zM377 14l-77 -151h-61l61 137h-44v130h121v-116z" />
    <glyph glyph-name="exclam" unicode="!" horiz-adv-x="274" 
d="M208 163h-142v504h142v-504zM208 0h-142v113h142v-113z" />
    <glyph glyph-name="exclamdown" unicode="&#xa1;" horiz-adv-x="274" 
d="M66 0v503h142v-503h-142zM66 554v113h142v-113h-142z" />
    <glyph glyph-name="question" unicode="?" horiz-adv-x="681" 
d="M408 667q38 0 64 -1.5t44.5 -5t32.5 -10.5t29 -18q70 -51 70 -164q0 -54 -19 -96t-54 -65q-23 -17 -58 -24t-88 -7h-88q-35 0 -61 -4.5t-36 -12.5q-12 -10 -17.5 -24.5t-5.5 -37.5v-34h-142v48q0 101 54 146q24 20 63 28.5t102 8.5h81q31 0 54 4t33 11q26 18 26 65
q0 56 -43 69q-7 2 -12.5 3.5t-14.5 2t-23.5 0.5h-39.5h-300v118h349zM221 0h-142v113h142v-113z" />
    <glyph glyph-name="questiondown" unicode="&#xbf;" horiz-adv-x="681" 
d="M273 0q-38 0 -64 1.5t-44.5 5t-32.5 10.5t-29 18q-70 51 -70 164q0 54 19 96t54 65q23 17 58 24t88 7h88q35 0 61 4.5t36 12.5q12 10 17.5 24.5t5.5 37.5v34h142v-47q0 -102 -54 -147q-24 -20 -63 -28.5t-102 -8.5h-81q-31 0 -54 -4t-33 -11q-26 -18 -26 -65
q0 -56 43 -69q7 -2 12.5 -3.5t14.5 -2t23.5 -0.5h39.5h300v-118h-349zM460 667h142v-113h-142v113z" />
    <glyph glyph-name="guillemotright" unicode="&#xbb;" horiz-adv-x="401" 
d="M183 300v-121l-133 -105v119l70 47l-70 49v119zM359 300v-121l-133 -105v119l70 47l-70 49v119z" />
    <glyph glyph-name="guillemotleft" unicode="&#xab;" horiz-adv-x="401" 
d="M175 289l-70 -49l70 -47v-119l-133 105v121l133 108v-119zM351 289l-70 -49l70 -47v-119l-133 105v121l133 108v-119z" />
    <glyph glyph-name="guilsinglright" unicode="&#x203a;" horiz-adv-x="225" 
d="M183 300v-121l-133 -105v119l70 47l-70 49v119z" />
    <glyph glyph-name="guilsinglleft" unicode="&#x2039;" horiz-adv-x="225" 
d="M175 289l-70 -49l70 -47v-119l-133 105v121l133 108v-119z" />
    <glyph glyph-name="slash" unicode="/" horiz-adv-x="533" 
d="M-41 -92l491 850h125l-491 -850h-125z" />
    <glyph glyph-name="hyphen" unicode="-" horiz-adv-x="233" 
d="M233 198h-233v120h233v-120z" />
    <glyph glyph-name="sfthyphen" unicode="&#xad;" horiz-adv-x="233" 
d="M233 198h-233v120h233v-120z" />
    <glyph glyph-name="endash" unicode="&#x2013;" horiz-adv-x="720" 
d="M586 218h-453v100h453v-100z" />
    <glyph glyph-name="emdash" unicode="&#x2014;" horiz-adv-x="697" 
d="M697 218h-697v100h697v-100z" />
    <glyph glyph-name="parenleft" unicode="(" horiz-adv-x="425" 
d="M392 651q-55 -3 -93.5 -22.5t-63 -59.5t-36 -101t-11.5 -147q0 -171 63 -241q24 -28 55.5 -41.5t85.5 -18.5v-112q-46 3 -82.5 10t-66 18t-54 27.5t-45.5 38.5q-100 106 -100 327q0 243 125 356q22 20 43 34t46.5 22.5t57.5 13.5t76 7v-111z" />
    <glyph glyph-name="parenright" unicode=")" horiz-adv-x="425" 
d="M33 762q27 -2 47.5 -3.5t36 -4t28.5 -6.5t26 -9q102 -41 156 -146.5t54 -263.5q0 -247 -123 -347q-20 -17 -42.5 -29.5t-49.5 -21.5t-60 -14.5t-73 -8.5v112q54 5 85.5 18.5t55.5 41.5q63 70 63 241q0 86 -11.5 147t-36 101t-63 59.5t-93.5 22.5v111z" />
    <glyph glyph-name="bracketleft" unicode="[" horiz-adv-x="353" 
d="M319 651h-34q-29 0 -45.5 -2.5t-25.5 -10.5t-11.5 -23t-2.5 -41v-482q0 -26 2.5 -41t11.5 -23t25.5 -10.5t45.5 -2.5h34v-107h-93q-27 0 -46.5 1.5t-34 4.5t-26 8.5t-21.5 14.5q-21 18 -29 43t-8 74v557q0 49 8 74.5t29 43.5q10 9 21.5 14.5t26 8.5t34 4.5t46.5 1.5h93
v-107z" />
    <glyph glyph-name="bracketright" unicode="]" horiz-adv-x="353" 
d="M127 758q27 0 46.5 -1.5t34 -4.5t25.5 -8.5t22 -14.5q21 -18 29 -43.5t8 -74.5v-557q0 -49 -8 -74t-29 -43q-11 -9 -22 -14.5t-25.5 -8.5t-34 -4.5t-46.5 -1.5h-93v107h34q28 0 45 2.5t26 10.5t11.5 23t2.5 41v482q0 26 -2.5 41t-11.5 23t-26 10.5t-45 2.5h-34v107h93z
" />
    <glyph glyph-name="ampersand" unicode="&#x26;" horiz-adv-x="751" 
d="M737 274h-93q-24 -77 -55 -130t-72.5 -86t-96 -47.5t-126.5 -14.5q-59 0 -96.5 7.5t-68.5 26.5q-42 25 -63.5 67.5t-21.5 96.5q0 51 22.5 87.5t61.5 50.5q-50 32 -71.5 68.5t-21.5 89.5q0 50 24 93.5t64 63.5q42 20 137 20h223v-119h-191q-94 0 -94 -75q0 -35 22 -57.5
t57 -22.5h48v-119h-17q-20 0 -33 -0.5t-22 -2t-14.5 -4t-11.5 -6.5q-27 -20 -27 -61q0 -84 109 -84q79 0 122 37t63 121h-96v119h339v-119z" />
    <glyph glyph-name="section" unicode="&#xa7;" horiz-adv-x="624" 
d="M236 85q-60 0 -93.5 8t-56.5 28t-36 53.5t-13 73.5q0 43 12.5 72.5t39.5 52.5q-26 22 -39 54.5t-13 72.5q0 51 23.5 92t62.5 58q11 5 22.5 8.5t27 5.5t38 2.5t54.5 0.5h295v-104h-267q-38 0 -57 -3t-31 -11q-29 -20 -29 -53q0 -69 102 -69h108q29 0 50.5 -2t38.5 -6.5
t30.5 -12t27.5 -19.5q26 -23 40.5 -56.5t14.5 -71.5q0 -35 -11 -63.5t-37 -57.5q48 -45 48 -118q0 -29 -7.5 -55t-21 -47.5t-32.5 -37.5t-42 -24q-11 -3 -20.5 -5.5t-23 -3.5t-32.5 -1.5t-48 -0.5h-291v104h262q21 0 33.5 0.5t20 1t13 1.5t11.5 3q19 5 29.5 21.5t10.5 40.5
q0 20 -8.5 35.5t-23.5 22.5q-13 6 -27.5 8t-44.5 2h-110zM292 323q-35 0 -54 -2.5t-30 -7.5q-32 -16 -32 -57q0 -35 23.5 -51t77.5 -16h68q43 0 63 5q41 11 41 61q0 38 -23.5 53t-80.5 15h-53z" />
    <glyph glyph-name="dagger" unicode="&#x2020;" horiz-adv-x="543" 
d="M204 -155v538h-171v104h171v180h134v-180h172v-104h-172v-538h-134z" />
    <glyph glyph-name="daggerdbl" unicode="&#x2021;" horiz-adv-x="543" 
d="M510 258v-104h-172v-309h-134v309h-171v104h171v125h-171v104h171v180h134v-180h172v-104h-172v-125h172z" />
    <glyph glyph-name="asterisk" unicode="*" horiz-adv-x="367" 
d="M67 426l54 74l-91 27l28 74l89 -29l-3 95h79l-3 -95l88 29l29 -74l-91 -27l54 -74l-64 -46l-53 75l-52 -75z" />
    <glyph glyph-name="quotesingle" unicode="'" horiz-adv-x="216" 
d="M63 399v268h91v-268h-91z" />
    <glyph glyph-name="quotedbl" unicode="&#x22;" horiz-adv-x="409" 
d="M63 399v268h91v-268h-91zM256 399v268h91v-268h-91z" />
    <glyph glyph-name="at" unicode="@" horiz-adv-x="793" 
d="M588 0h-226q-86 0 -140 15.5t-91 50.5q-23 22 -41 51.5t-30.5 64.5t-19.5 73.5t-7 77.5q0 45 8.5 88t24.5 80.5t38.5 68t50.5 50.5q42 29 102 43t149 14q90 0 152 -15t104 -47q45 -34 71 -90.5t26 -120.5q0 -55 -20 -107t-54 -87q-21 -21 -43 -33.5t-58 -24.5h-213
q-30 0 -48.5 1t-31.5 3.5t-22 7.5t-20 13q-46 34 -46 106q0 63 21 113.5t59 77.5q29 21 63.5 30.5t85.5 9.5h149l-41 -294h42q33 25 53 74t20 107q0 57 -20.5 101.5t-57.5 67.5q-26 16 -70.5 25t-100.5 9q-75 0 -124.5 -15t-77.5 -47q-14 -16 -25.5 -39t-19.5 -50.5
t-12.5 -58t-4.5 -61.5q0 -36 6 -70t16.5 -63.5t25.5 -52.5t33 -38q26 -20 64 -28t106 -8h195v-73zM442 433q-37 0 -59 -8t-36 -26q-12 -17 -19.5 -42.5t-7.5 -52.5q0 -38 21 -54.5t68 -16.5h20l29 200h-16z" />
    <glyph glyph-name="numbersign" unicode="#" horiz-adv-x="653" 
d="M308 633l-27 -168h131l27 168h113l-27 -168h110l-10 -67h-111l-18 -116h110l-10 -67h-111l-29 -182h-112l29 182h-131l-29 -182h-113l29 182h-110l11 67h110l18 116h-110l10 67h111l27 168h112zM271 398l-18 -116h130l19 116h-131z" />
    <glyph glyph-name="degree" unicode="&#xb0;" horiz-adv-x="385" 
d="M194 671q31 0 58.5 -12t48 -32.5t32.5 -47.5t12 -58t-12 -58.5t-33 -48t-49 -32.5t-59 -12q-32 0 -59.5 12t-48.5 32.5t-33 48t-12 58.5t12 58.5t33 48t49 32t61 11.5zM191 596q-31 0 -52.5 -22t-21.5 -52q0 -31 21.5 -52.5t52.5 -21.5q30 0 52 21.5t22 52.5t-21.5 52.5
t-52.5 21.5z" />
    <glyph glyph-name="plus" unicode="+" horiz-adv-x="559" 
d="M224 395v178h113v-178h186v-109h-186v-179h-113v179h-187v109h187z" />
    <glyph glyph-name="minus" unicode="&#x2212;" horiz-adv-x="559" 
d="M523 395v-109h-486v109h486z" />
    <glyph glyph-name="multiply" unicode="&#xd7;" horiz-adv-x="559" 
d="M202 340l-152 152l77 78l152 -153l152 153l78 -78l-152 -152l152 -152l-78 -77l-152 152l-152 -152l-77 77z" />
    <glyph glyph-name="divide" unicode="&#xf7;" horiz-adv-x="559" 
d="M281 583q29 0 50 -21.5t21 -50.5q0 -30 -21 -51t-51 -21t-51 21t-21 51t21 51t52 21zM281 241q29 0 50 -21.5t21 -50.5q0 -30 -21 -51t-51 -21t-51 21t-21 51t21 51t52 21zM523 395v-109h-486v109h486z" />
    <glyph glyph-name="equal" unicode="=" horiz-adv-x="559" 
d="M523 491v-109h-486v109h486zM523 299v-109h-486v109h486z" />
    <glyph glyph-name="trademark" unicode="&#x2122;" horiz-adv-x="898" 
d="M3 595v72h351v-72h-131v-302h-92v302h-128zM625 387l102 280h130v-374h-88v261l-99 -261h-92l-93 260v-260h-88v374h130z" />
    <glyph glyph-name="paragraph" unicode="&#xb6;" horiz-adv-x="643" 
d="M248 233q-44 1 -72 6t-51 16q-45 23 -72.5 76t-27.5 119q0 59 27 111t72 78q26 15 60.5 21.5t89.5 6.5h361v-117h-60v-705h-118v705h-165q-51 0 -71 -10q-20 -11 -30.5 -33.5t-10.5 -52.5q0 -54 25 -78t80 -24h81v-507h-118v388z" />
    <glyph glyph-name="currency" unicode="&#xa4;" horiz-adv-x="649" 
d="M543 640l79 -79l-78 -78q38 -64 38 -143q0 -39 -8.5 -72t-26.5 -66l79 -79l-79 -80l-79 79q-32 -17 -67 -24.5t-77 -7.5q-80 0 -143 32l-79 -79l-79 79l79 80q-18 32 -26.5 65.5t-8.5 72.5q0 41 8.5 75t28.5 66l-81 80l80 80l81 -81q62 31 140 31q77 0 140 -30zM323 489
q-119 0 -119 -148q0 -149 121 -149q120 0 120 149q0 148 -122 148z" />
    <glyph glyph-name="quotesinglbase" unicode="&#x201a;" horiz-adv-x="234" 
d="M182 14l-77 -151h-61l61 137h-44v130h121v-116z" />
    <glyph glyph-name="quoteright" unicode="&#x2019;" horiz-adv-x="234" 
d="M182 551l-77 -151h-61l61 137h-44v130h121v-116z" />
    <glyph glyph-name="braceleft" unicode="{" horiz-adv-x="380" 
d="M227 457q0 -50 -13 -77.5t-47 -46.5q33 -19 46.5 -46.5t13.5 -77.5v-98v-40.5t1 -22t3.5 -11.5t6.5 -8q11 -14 49 -14h59v-107h-68q-35 0 -59 1.5t-41.5 5.5t-30 11t-24.5 18q-35 33 -35 109v144q0 45 -10.5 64.5t-37.5 25.5v92q27 6 37.5 25.5t10.5 64.5v144
q0 45 11.5 73.5t35.5 45.5q11 7 22.5 12t26 8t33.5 4.5t45 1.5h84v-107h-59q-21 0 -32.5 -3.5t-17.5 -11.5q-4 -5 -6 -8.5t-3 -11t-1 -22v-39.5v-98z" />
    <glyph glyph-name="braceright" unicode="}" horiz-adv-x="380" 
d="M153 209q0 50 13.5 77.5t46.5 46.5q-34 19 -47 46.5t-13 77.5v98v39.5t-1 22t-3 11t-6 8.5q-6 8 -17.5 11.5t-32.5 3.5h-59v107h84q28 0 49.5 -1.5t37.5 -6t28.5 -11.5t23.5 -17q35 -33 35 -109v-144q0 -45 10.5 -64.5t37.5 -25.5v-92q-27 -6 -37.5 -25.5t-10.5 -64.5
v-144q0 -86 -47 -118q-12 -8 -24 -13.5t-28 -8.5t-38 -4t-53 -1h-68v107h59q38 0 49 14q4 4 6.5 8t3.5 11.5t1 22v40.5v98z" />
    <glyph glyph-name="ordfeminine" unicode="&#xaa;" horiz-adv-x="395" 
d="M260 448q0 26 -12.5 35t-48.5 9h-146v68h146q29 0 48 -1.5t32.5 -5t23.5 -10t19 -16.5q17 -17 23 -38t6 -57v-165h-181q-24 0 -40 0.5t-27 2t-19 4.5t-15 8q-38 25 -38 73q0 32 16 55.5t43 31.5q21 6 70 6h100zM166 380h-18t-8 -1q-16 -5 -16 -22q0 -12 9.5 -17t32.5 -5
h94v45h-94z" />
    <glyph glyph-name="ordmasculine" unicode="&#xba;" horiz-adv-x="387" 
d="M195 565q77 0 120.5 -41t43.5 -113q0 -69 -44.5 -108.5t-122.5 -39.5t-121 40t-43 112q0 69 45 109.5t122 40.5zM193 498q-72 0 -72 -85q0 -83 73 -83q72 0 72 85q0 83 -73 83z" />
    <glyph glyph-name="plusminus" unicode="&#xb1;" horiz-adv-x="559" 
d="M224 460v178h113v-178h186v-109h-186v-178h-113v178h-187v109h187zM523 137v-109h-486v109h486z" />
    <glyph glyph-name="onehalf" unicode="&#xbd;" horiz-adv-x="1107" 
d="M229 267v400h96v-400h-96zM785 671l-374 -675h-96l374 675h96zM1067 76v-76h-370v108q0 69 37 102q16 16 38 21.5t64 5.5h68q36 0 52.5 10t16.5 32q0 45 -69 45h-200v76h219q45 0 72.5 -6.5t44.5 -21.5q38 -32 38 -90q0 -38 -13.5 -65t-39.5 -40q-34 -16 -96 -16h-59
q-23 0 -38 -2t-23.5 -8t-12 -16.5t-3.5 -26.5v-32h274z" />
    <glyph glyph-name="onequarter" unicode="&#xbc;" horiz-adv-x="1107" 
d="M229 267v400h96v-400h-96zM785 671l-374 -675h-96l374 675h96zM623 156l239 244h123v-256h55v-76h-55v-68h-96v68h-266v88zM889 144v157l-154 -157h154z" />
    <glyph glyph-name="threequarters" unicode="&#xbe;" horiz-adv-x="1107" 
d="M61 343h184q35 0 49 10t14 33q0 12 -5 22.5t-14 15.5q-8 4 -16 5t-28 1h-144v77h144q36 0 49.5 9t13.5 32q0 25 -18 36q-7 5 -16 6t-29 1h-184v76h199q21 0 35.5 -0.5t25 -2t18.5 -4t16 -6.5q27 -13 42.5 -39t15.5 -58q0 -58 -53 -88q53 -35 53 -95q0 -58 -47 -86
q-11 -6 -21.5 -10.5t-24 -6.5t-30.5 -3t-41 -1h-188v76zM785 671l-374 -675h-96l374 675h96zM617 156l239 244h122v-256h55v-76h-55v-68h-96v68h-265v88zM882 144v157l-154 -157h154z" />
    <glyph glyph-name="fraction" unicode="&#x2044;" horiz-adv-x="159" 
d="M312 671l-374 -675h-96l374 675h96z" />
    <glyph glyph-name="percent" unicode="%" horiz-adv-x="883" 
d="M217 670q177 0 177 -169q0 -168 -169 -168q-186 0 -186 168q0 88 43 128.5t135 40.5zM213 598q-37 0 -56.5 -24t-19.5 -69q0 -53 19.5 -76.5t63.5 -23.5q39 0 57.5 24t18.5 75q0 94 -83 94zM616 667l-269 -667h-85l269 667h85zM666 333q177 0 177 -169q0 -168 -170 -168
q-186 0 -186 168q0 88 43 128.5t136 40.5zM661 261q-76 0 -76 -94q0 -52 19.5 -75.5t64.5 -23.5q39 0 57.5 24t18.5 75q0 94 -84 94z" />
    <glyph glyph-name="perthousand" unicode="&#x2030;" horiz-adv-x="1278" 
d="M217 670q177 0 177 -169q0 -168 -169 -168q-186 0 -186 168q0 88 43 128.5t135 40.5zM213 598q-37 0 -56.5 -24t-19.5 -69q0 -53 19.5 -76.5t63.5 -23.5q39 0 57.5 24t18.5 75q0 94 -83 94zM616 667l-269 -667h-85l269 667h85zM666 333q177 0 177 -169q0 -168 -170 -168
q-186 0 -186 168q0 88 43 128.5t136 40.5zM661 261q-76 0 -76 -94q0 -52 19.5 -75.5t64.5 -23.5q39 0 57.5 24t18.5 75q0 94 -84 94zM1061 333q177 0 177 -169q0 -168 -170 -168q-186 0 -186 168q0 88 43 128.5t136 40.5zM1056 261q-76 0 -76 -94q0 -52 19.5 -75.5
t64.5 -23.5q39 0 57.5 24t18.5 75q0 94 -84 94z" />
    <glyph glyph-name="backslash" unicode="\" horiz-adv-x="533" 
d="M-41 758h125l491 -850h-125z" />
    <glyph glyph-name="dieresis" unicode="&#xa8;" 
d="M396 550h-107v110h107v-110zM210 550h-107v110h107v-110z" />
    <glyph glyph-name="dotaccent" unicode="&#x2d9;" 
d="M304 550h-107v110h107v-110z" />
    <glyph glyph-name="ring" unicode="&#x2da;" 
d="M251 725q19 0 36 -7.5t30 -20.5t20.5 -30.5t7.5 -36.5q0 -20 -7.5 -37.5t-20.5 -30.5t-30.5 -20.5t-36.5 -7.5q-40 0 -68 28t-28 68t28 67.5t69 27.5zM249 668q-16 0 -27 -11t-11 -27q0 -17 11 -28t27 -11q17 0 28 11t11 28q0 16 -11 27t-28 11z" />
    <glyph glyph-name="acute" unicode="&#xb4;" 
d="M279 545h-86l92 130h118z" />
    <glyph glyph-name="grave" unicode="`" 
d="M215 675l92 -130h-86l-124 130h118z" />
    <glyph glyph-name="circumflex" unicode="&#x2c6;" 
d="M187 545h-97l106 130h108l106 -130h-96l-64 79z" />
    <glyph glyph-name="caron" unicode="&#x2c7;" 
d="M313 675h97l-106 -130h-108l-106 130h96l64 -79z" />
    <glyph glyph-name="breve" unicode="&#x2d8;" 
d="M177 675q14 -56 73 -56q60 0 72 56h74q-5 -63 -43 -97t-103 -34q-66 0 -104 34t-43 97h74z" />
    <glyph glyph-name="tilde" unicode="&#x2dc;" 
d="M411 658q-12 -108 -92 -108q-18 0 -35.5 4.5t-44.5 15.5q-23 10 -34 13t-21 3q-28 0 -36 -34h-60q15 108 94 108q16 0 31.5 -4t47.5 -17q20 -8 32 -11t23 -3q28 0 35 33h60z" />
    <glyph glyph-name="hungarumlaut" unicode="&#x2dd;" 
d="M189 545h-73l83 130h103zM329 545h-73l83 130h104z" />
    <glyph glyph-name="cedilla" unicode="&#xb8;" 
d="M252 0v-45h10q44 0 63 -13q12 -8 19 -24.5t7 -35.5q0 -24 -10.5 -41t-29.5 -24q-18 -6 -56 -6h-77v49h69q30 0 30 27q0 17 -7 22.5t-27 5.5h-42v85h51z" />
    <glyph glyph-name="ogonek" unicode="&#x2db;" 
d="M480 0q-32 -17 -46 -34.5t-14 -39.5q0 -17 11 -27t31 -10t45 11v-57q-20 -8 -34.5 -10.5t-33.5 -2.5q-94 0 -94 75q0 30 14.5 52.5t46.5 42.5h74z" />
    <glyph glyph-name="macron" unicode="&#xaf;" 
d="M409 566h-317v67h317v-67z" />
    <glyph glyph-name="copyright" unicode="&#xa9;" horiz-adv-x="769" 
d="M390 677q70 0 132 -27.5t108.5 -74t73.5 -109.5t27 -133q0 -71 -27 -133.5t-74 -109t-110 -73.5t-134 -27q-72 0 -135 27t-110 73.5t-74.5 109t-27.5 133.5q0 72 27.5 135t74.5 109.5t111 73t138 26.5zM383 612q-56 0 -106 -22t-87 -60t-58.5 -88.5t-21.5 -107.5
q0 -58 21.5 -108.5t59 -88.5t87.5 -60t107 -22t107 22t87.5 59.5t59 88.5t21.5 108q0 58 -21.5 109t-59 89t-88 59.5t-108.5 21.5zM543 144h-147q-54 0 -84.5 8t-54.5 29q-57 48 -57 152q0 65 24 110t69 64q18 8 47 12.5t60 4.5h143v-73h-133q-57 0 -81.5 -25t-24.5 -85
q0 -69 24 -96.5t85 -27.5h130v-73z" />
    <glyph glyph-name="registered" unicode="&#xae;" horiz-adv-x="769" 
d="M390 677q70 0 132 -27.5t108.5 -74t73.5 -109.5t27 -133q0 -71 -27 -133.5t-74 -109t-110 -73.5t-134 -27q-72 0 -135 27t-110 73.5t-74.5 109t-27.5 133.5q0 72 27.5 135t74.5 109.5t111 73t138 26.5zM383 612q-56 0 -106 -22t-87 -60t-58.5 -88.5t-21.5 -107.5
q0 -58 21.5 -108.5t59 -88.5t87.5 -60t107 -22t107 22t87.5 59.5t59 88.5t21.5 108q0 58 -21.5 109t-59 89t-88 59.5t-108.5 21.5zM312 146h-96v380h175q48 0 78 -5t50 -17q23 -14 35.5 -36.5t12.5 -48.5q0 -41 -18.5 -69t-53.5 -40q65 -20 68 -104q1 -15 2 -23.5t2.5 -14
t3 -10.5t4.5 -12h-108q-1 7 -3 10l-4 20l-3 26q-3 25 -9.5 41.5t-19.5 26.5t-32.5 14t-48.5 4h-35v-142zM400 362q34 0 48 11t14 37q0 24 -14 34t-48 10h-88v-92h88z" />
    <glyph glyph-name="Acircumflex" unicode="&#xc2;" horiz-adv-x="723" 
d="M280 667h163l276 -667h-166l-64 155h-254l-64 -155h-167zM267 274h190l-95 233zM299 717h-101l108 123h110l109 -123h-101l-63 71z" />
    <glyph glyph-name="nonbreakingspace" unicode="&#xa0;" horiz-adv-x="250" 
 />
    <glyph glyph-name="bullet" unicode="&#x2022;" horiz-adv-x="667" 
d="M337 478q28 0 52.5 -11t43 -30t29.5 -44t11 -53q0 -29 -11 -54.5t-29.5 -44t-44 -29.5t-53.5 -11q-29 0 -54 11t-44 29.5t-30 43.5t-11 54t11 54.5t30 44t44.5 29.5t55.5 11z" />
    <glyph glyph-name="less" unicode="&#x3c;" 
d="M466 477l-270 -140l270 -141v-152l-433 229v129l433 229v-154z" />
    <glyph glyph-name="greater" unicode="&#x3e;" 
d="M33 197l269 141l-269 140v153l433 -229v-130l-433 -228v153z" />
    <glyph glyph-name="logicalnot" unicode="&#xac;" 
d="M315 156h-282v135h433v-291h-151v156z" />
    <glyph glyph-name="asciicircum" unicode="^" 
d="M14 349l150 322h172l150 -322h-137l-99 218l-99 -218h-137z" />
    <glyph glyph-name="bar" unicode="|" 
d="M327 667v-834h-155v834h155z" />
    <glyph glyph-name="brokenbar" unicode="&#xa6;" 
d="M327 667v-353h-155v353h155zM327 153v-320h-155v320h155z" />
    <glyph glyph-name="underscore" unicode="_" 
d="M500 -39v-109h-500v109h500z" />
    <glyph glyph-name="asciitilde" unicode="~" horiz-adv-x="667" 
d="M93 613q55 138 150 138q19 0 43.5 -7.5t68.5 -25.5q20 -9 32 -14t20 -7.5t13 -3t11 -0.5q20 0 36.5 14t34.5 46l75 -62q-31 -74 -66.5 -105t-90.5 -31q-11 0 -19.5 1t-20 4.5t-28 10.5t-43.5 18q-27 12 -43.5 17t-29.5 5q-19 0 -35 -14t-33 -47z" />
    <glyph glyph-name="mu" unicode="&#xb5;" horiz-adv-x="590" 
d="M200 -183h-134v670h134v-316q0 -31 17.5 -49t46.5 -18h126v383h134v-487h-263q-28 0 -38.5 0.5t-22.5 2.5v-186z" />
    <glyph glyph-name="Adieresis" unicode="&#xc4;" horiz-adv-x="723" 
d="M280 667h163l276 -667h-166l-64 155h-254l-64 -155h-167zM267 274h190l-95 233zM513 720h-108v110h108v-110zM318 720h-108v110h108v-110z" />
    <glyph glyph-name="Aacute" unicode="&#xc1;" horiz-adv-x="723" 
d="M280 667h163l276 -667h-166l-64 155h-254l-64 -155h-167zM267 274h190l-95 233zM398 717h-88l92 123h121z" />
    <glyph glyph-name="Agrave" unicode="&#xc0;" horiz-adv-x="723" 
d="M280 667h163l276 -667h-166l-64 155h-254l-64 -155h-167zM267 274h190l-95 233zM324 840l91 -123h-87l-126 123h122z" />
    </font>
</defs>
</svg>
